<?xml version="1.0" encoding="UTF-8"?>
<!DOCTYPE svg PUBLIC "-//W3C//DTD SVG 1.1//EN" "http://www.w3.org/Graphics/SVG/1.1/DTD/svg11.dtd">
<svg xmlns="http://www.w3.org/2000/svg" version="1.1" width="279px" height="96px" style="shape-rendering:geometricPrecision; text-rendering:geometricPrecision; image-rendering:optimizeQuality; fill-rule:evenodd; clip-rule:evenodd" xmlns:xlink="http://www.w3.org/1999/xlink">
<g><path style="opacity:0.968" fill="#00447b" d="M 185.5,31.5 C 184.566,32.5676 184.232,33.901 184.5,35.5C 181.381,45.2932 178.548,55.2932 176,65.5C 171.934,66.4637 167.767,66.797 163.5,66.5C 161.337,56.514 159.171,46.514 157,36.5C 154.513,46.4457 152.346,56.4457 150.5,66.5C 146.167,66.5 141.833,66.5 137.5,66.5C 134.652,53.7742 131.485,41.1075 128,28.5C 127.5,41.1623 127.333,53.8289 127.5,66.5C 123.167,66.5 118.833,66.5 114.5,66.5C 114.666,56.1613 114.5,45.828 114,35.5C 110.909,28.1115 107.242,27.7782 103,34.5C 102.5,45.1615 102.333,55.8281 102.5,66.5C 98.1667,66.5 93.8333,66.5 89.5,66.5C 89.6665,56.1613 89.4998,45.828 89,35.5C 85.9086,28.1115 82.242,27.7782 78,34.5C 77.5002,45.1615 77.3335,55.8281 77.5,66.5C 68.5,66.5 59.5,66.5 50.5,66.5C 49.4972,61.8273 48.4972,57.1606 47.5,52.5C 41.1318,52.1703 34.7985,52.5037 28.5,53.5C 27.2599,57.7194 25.9266,61.886 24.5,66C 19.1357,66.8295 13.8023,66.6628 8.5,65.5C 15.634,44.2646 22.4673,22.9313 29,1.5C 34.6667,0.166667 40.3333,0.166667 46,1.5C 51.7985,19.8956 57.7985,38.229 64,56.5C 64.4999,43.5043 64.6666,30.5043 64.5,17.5C 68.8333,17.5 73.1667,17.5 77.5,17.5C 77.3433,18.8734 77.51,20.2068 78,21.5C 83.5234,16.0521 89.6901,15.2188 96.5,19C 98.0488,20.214 99.2155,21.714 100,23.5C 105.954,16.2573 113.121,14.7573 121.5,19C 123.378,20.5429 124.878,22.3762 126,24.5C 126.334,22.1527 126.167,19.8194 125.5,17.5C 130.099,17.2 134.599,17.5333 139,18.5C 140.746,27.2297 142.746,35.8964 145,44.5C 147.285,35.5762 149.118,26.5762 150.5,17.5C 154.767,17.203 158.934,17.5363 163,18.5C 164.746,27.2297 166.746,35.8964 169,44.5C 171.285,35.5762 173.118,26.5762 174.5,17.5C 179.214,17.1734 183.88,17.5067 188.5,18.5C 187.026,22.7307 186.026,27.064 185.5,31.5 Z M 36.5,19.5 C 37.5862,19.62 38.2528,20.2867 38.5,21.5C 40.0757,27.3897 41.7423,33.223 43.5,39C 39.8484,39.4986 36.1817,39.6653 32.5,39.5C 33.8333,32.8333 35.1667,26.1667 36.5,19.5 Z"/></g>
<g><path style="opacity:0.952" fill="#00437b" d="M 249.5,75.5 C 248.5,75.8333 247.833,76.5 247.5,77.5C 246.158,78.793 244.491,79.6264 242.5,80C 238.179,80.499 233.846,80.6657 229.5,80.5C 229.5,78.8333 229.5,77.1667 229.5,75.5C 229.5,74.5 229.5,73.5 229.5,72.5C 229.5,71.1667 229.5,69.8333 229.5,68.5C 232.187,68.6641 234.854,68.4974 237.5,68C 238.573,66.6871 239.24,65.1871 239.5,63.5C 235.434,50.1362 231.268,36.8029 227,23.5C 226.5,37.8295 226.333,52.1628 226.5,66.5C 222.167,66.5 217.833,66.5 213.5,66.5C 213.97,62.0296 212.97,61.5296 210.5,65C 196.332,69.49 187.832,64.3233 185,49.5C 184.501,44.8452 184.334,40.1785 184.5,35.5C 185.434,34.4324 185.768,33.099 185.5,31.5C 189.002,20.8283 196.335,15.995 207.5,17C 210.057,17.6853 211.891,19.1853 213,21.5C 213.49,20.2068 213.657,18.8734 213.5,17.5C 222.192,17.1686 230.859,17.502 239.5,18.5C 241.938,27.8597 244.438,37.1931 247,46.5C 249.105,37.1414 251.271,27.8081 253.5,18.5C 257.783,17.5078 262.116,17.1744 266.5,17.5C 261.761,37.1261 256.094,56.4594 249.5,75.5 Z M 203.5,28.5 C 210.626,29.7013 213.626,34.0346 212.5,41.5C 213.375,48.0889 210.875,52.7555 205,55.5C 199.342,52.9345 196.842,48.4345 197.5,42C 197.114,36.2853 199.114,31.7853 203.5,28.5 Z"/></g>
<g><path style="opacity:0.67" fill="#00447b" d="M 253.5,68.5 C 257.015,68.7121 260.348,68.7121 263.5,68.5C 264.466,70.396 264.799,72.396 264.5,74.5C 262.5,74.5 260.5,74.5 258.5,74.5C 258.443,69.3183 257.776,69.3183 256.5,74.5C 255.473,72.4469 254.473,70.4469 253.5,68.5 Z"/></g>
<g><path style="opacity:0.872" fill="#ed154f" d="M 229.5,72.5 C 229.5,73.5 229.5,74.5 229.5,75.5C 152.748,70.6137 76.9147,76.947 2,94.5C 1.5,94.1667 1,93.8333 0.5,93.5C 1.01023,90.77 2.34357,88.6034 4.5,87C 78.774,70.6069 153.774,65.7736 229.5,72.5 Z"/></g>
<g><path style="opacity:0.684" fill="#ed154f" d="M 249.5,75.5 C 258.936,76.7539 268.27,78.5872 277.5,81C 276.874,81.7504 276.374,82.5838 276,83.5C 266.56,81.1788 257.06,79.1788 247.5,77.5C 247.833,76.5 248.5,75.8333 249.5,75.5 Z"/></g>
</svg>
