<svg width="513" height="62" viewBox="0 0 513 62" fill="none" xmlns="http://www.w3.org/2000/svg">
<path d="M130.459 2.03514V59.9649H116.409V31.1217H90.8296V59.9649H76.7801V2.03514H90.8296V17.6588H116.409V2.03514H130.459ZM355.544 15.0693H335.729V59.9649H321.68V15.0693H301.865V2.03514H355.544V15.0693ZM247.718 44.1558V59.9591H233.668V2.03514H261.123C276.104 2.03514 282.847 12.5899 282.847 23.1447C282.847 33.6995 276.104 44.1616 261.123 44.1616H247.723L247.718 44.1558ZM260.783 31.1217C266.073 31.1217 268.048 27.0434 268.048 23.1389C268.048 19.2345 266.073 15.0693 260.871 15.0693H247.718V31.1217H260.783ZM212.91 31.0406C212.91 47.8691 199.13 61.4942 182.11 61.4942C165.09 61.4942 151.217 47.8691 151.217 31.0406C151.217 14.212 164.991 0.5 182.104 0.5C199.218 0.5 212.904 14.212 212.904 31.0463L212.91 31.0406ZM182.11 13.9629C172.596 13.9629 164.885 21.5864 164.885 30.9942C164.885 40.402 172.596 48.0255 182.11 48.0255C191.625 48.0255 199.335 40.402 199.335 30.9942C199.335 21.5864 191.625 13.9629 182.11 13.9629ZM13.6628 31C13.6628 21.5922 21.373 13.9687 30.8878 13.9687C36.6705 13.9687 41.7852 16.7898 44.908 21.1114L56.0164 13.343C50.4446 5.57464 41.2755 0.5 30.8937 0.5C13.78 0.5 0 14.1251 0 30.9537V31.0406C0 47.8691 13.78 61.4942 30.8937 61.4942C41.2755 61.4942 50.4446 56.4196 56.0222 48.6512L44.9139 40.8828C41.7911 45.2044 36.6763 48.0255 30.8937 48.0255C21.3789 48.0255 13.6687 40.402 13.6687 30.9942L13.6628 31ZM498.605 18.2439H503.286V15.8919H498.605V12.9839H503.948V10.5914H495.916V23.3649H504.112V20.9724H498.605V18.2497V18.2439ZM394.376 19.2287L396.55 20.7464C395.442 22.4322 393.509 23.5444 391.206 23.5444C387.58 23.5444 384.832 20.5958 384.832 16.9984C384.832 13.4009 387.574 10.4349 391.206 10.4349C393.474 10.4349 395.39 11.5124 396.491 13.1403L394.3 14.658C393.62 13.6558 392.513 12.9896 391.206 12.9896C389.086 12.9896 387.539 14.7681 387.539 16.9926C387.539 19.2171 389.086 20.9782 391.206 20.9782C392.531 20.9782 393.691 20.254 394.376 19.2171V19.2287ZM409.785 18.8406L412.937 23.3649H409.697L406.861 18.9506H406.252V23.3649H403.545V10.5914H408.742C411.613 10.5914 412.96 12.6884 412.96 14.7797C412.96 16.5987 411.964 18.3771 409.791 18.8406H409.785ZM410.136 14.7797C410.136 13.9802 409.621 12.9839 408.607 12.9839H406.252V16.5813H408.537C409.586 16.5813 410.142 15.6197 410.142 14.7855L410.136 14.7797ZM423.055 18.2439H427.736V15.8919H423.055V12.9839H428.398V10.5914H420.366V23.3649H428.562V20.9724H423.055V18.2497V18.2439ZM451.512 13.036H455.273V23.3591H457.997V13.036H461.759V10.5914H451.506V13.036H451.512ZM468.795 23.3591H471.484V10.5914H468.795V23.3649V23.3591ZM483.7 18.968L480.419 10.5914H477.618L482.499 23.3649H484.895L489.442 10.5914H486.624L483.7 18.968ZM442.448 10.5914L447.147 23.3649H444.311L443.62 21.3257H438.364L437.679 23.3649H434.808L439.524 10.5914H442.454H442.448ZM442.852 19.0723L440.971 13.54L439.114 19.0723H442.852ZM390.527 44.0168L389.015 43.536C387.779 43.1826 387.65 42.5744 387.65 42.2384C387.65 41.4795 388.347 40.9581 389.291 40.9581C390.357 40.9581 390.931 41.549 390.931 42.4064H393.62C393.62 39.9617 391.781 38.4961 389.326 38.4961C386.871 38.4961 384.961 40.037 384.961 42.3137C384.961 43.4607 385.441 45.1117 388.242 45.9864L389.771 46.4151C391.06 46.7859 391.318 47.284 391.3 47.8633C391.283 48.6975 390.527 49.2189 389.437 49.2189C388.218 49.2189 387.574 48.4948 387.539 47.678H384.832C384.832 49.9778 386.672 51.6288 389.437 51.6288C391.687 51.6288 393.966 50.4238 394.007 47.8865C394.042 46.6642 393.603 44.9205 390.527 44.0284V44.0168ZM420.729 38.6409H418.022V51.4144H425.481V49.0219H420.729V38.6409ZM460.458 45.0538C460.458 48.6686 458.378 51.4144 454.728 51.4144H449.754V38.6409H454.728C458.378 38.6409 460.458 41.4216 460.458 45.0538ZM457.769 45.0538C457.769 42.9393 456.755 41.1029 454.728 41.1029H452.443V48.9408H454.728C456.755 48.9408 457.769 47.145 457.769 45.048V45.0538ZM480.448 49.0393C478.327 49.0393 476.781 47.2609 476.781 45.0538C476.781 42.8466 478.327 41.0508 480.448 41.0508C481.755 41.0508 482.862 41.717 483.542 42.7192L485.733 41.2014C484.626 39.5678 482.71 38.4961 480.448 38.4961C476.822 38.4961 474.074 41.4273 474.074 45.0595C474.074 48.6917 476.816 51.6056 480.448 51.6056C482.751 51.6056 484.684 50.4934 485.792 48.8076L483.618 47.2898C482.938 48.3268 481.778 49.0509 480.448 49.0509V49.0393ZM504.511 45.0538C504.511 48.6512 501.675 51.5998 498.066 51.5998C494.457 51.5998 491.639 48.6512 491.639 45.0538C491.639 41.4563 494.474 38.4903 498.066 38.4903C501.657 38.4903 504.511 41.4216 504.511 45.0538ZM501.821 45.0538C501.821 42.9219 500.163 41.1783 498.066 41.1783C495.968 41.1783 494.328 42.9219 494.328 45.0538C494.328 47.1856 495.968 48.9119 498.066 48.9119C500.163 48.9119 501.821 47.1856 501.821 45.0538ZM511.401 48.5006C510.533 48.5006 509.819 49.1494 509.819 50.0415C509.819 50.9336 510.539 51.5998 511.401 51.5998C512.262 51.5998 513.006 50.951 513.006 50.0415C513.006 49.132 512.268 48.5006 511.401 48.5006ZM407.037 38.6409L411.736 51.4144H408.9L408.209 49.3753H402.953L402.268 51.4144H399.397L404.113 38.6409H407.043H407.037ZM407.441 47.1218L405.561 41.5896L403.703 47.1218H407.441ZM438.886 38.6409L443.584 51.4144H440.749L440.057 49.3753H434.802L434.117 51.4144H431.246L435.962 38.6409H438.892H438.886ZM439.29 47.1218L437.409 41.5896L435.552 47.1218H439.29Z" fill="#FCE347"/>
</svg>
