<?xml version="1.0" encoding="UTF-8"?>
<!DOCTYPE svg PUBLIC "-//W3C//DTD SVG 1.1//EN" "http://www.w3.org/Graphics/SVG/1.1/DTD/svg11.dtd">
<svg xmlns="http://www.w3.org/2000/svg" version="1.1" width="537px" height="186px" style="shape-rendering:geometricPrecision; text-rendering:geometricPrecision; image-rendering:optimizeQuality; fill-rule:evenodd; clip-rule:evenodd" xmlns:xlink="http://www.w3.org/1999/xlink">
<g><path style="opacity:0.984" fill="#feda00" d="M 91.5,-0.5 C 92.1667,-0.5 92.8333,-0.5 93.5,-0.5C 124.146,30.4791 154.812,61.4791 185.5,92.5C 155.812,122.854 125.812,152.854 95.5,182.5C 95.3334,157.831 95.5,133.164 96,108.5C 98.7051,103.212 100.038,97.5458 100,91.5C 104.558,87.7283 109.225,87.7283 114,91.5C 114.865,96.9308 116.865,97.5974 120,93.5C 122.269,89.2865 121.769,85.4531 118.5,82C 121.127,79.9833 123.627,80.1499 126,82.5C 125.828,79.6487 124.661,77.1487 122.5,75C 119.102,73.0838 115.435,72.0838 111.5,72C 113.669,69.7969 116.335,68.9635 119.5,69.5C 119.703,67.6096 119.037,66.1096 117.5,65C 120.924,63.1391 124.091,63.6391 127,66.5C 126.859,61.6711 124.359,58.5045 119.5,57C 111.481,54.3388 104.647,56.1721 99,62.5C 99.6872,57.4766 102.187,53.4766 106.5,50.5C 104.685,48.3055 102.518,47.9722 100,49.5C 99.7308,46.7202 100.898,44.5536 103.5,43C 95.2687,42.5319 88.7687,45.6986 84,52.5C 82.4008,55.8013 80.9008,59.1346 79.5,62.5C 70.0771,57.3155 62.2437,58.9821 56,67.5C 55.3333,69.1667 55.3333,70.8333 56,72.5C 58.6534,69.8059 61.8201,68.9726 65.5,70C 59.5825,76.0632 60.4159,77.5632 68,74.5C 70.1454,74.396 71.9788,75.0627 73.5,76.5C 66.1254,77.8745 61.7921,82.2078 60.5,89.5C 60.5695,91.7085 61.2362,93.7085 62.5,95.5C 64.1397,92.027 66.6397,89.3603 70,87.5C 68.5742,91.4402 69.7409,94.4402 73.5,96.5C 74.1731,90.9828 77.1731,88.8162 82.5,90C 83.6241,90.8388 84.2908,92.0055 84.5,93.5C 84.9213,98.3687 86.088,103.035 88,107.5C 89.2735,132.483 89.7735,157.483 89.5,182.5C 59.5,152.833 29.5,123.167 -0.5,93.5C -0.5,92.8333 -0.5,92.1667 -0.5,91.5C 30.5,61.1667 61.1667,30.5 91.5,-0.5 Z"/></g>
<g><path style="opacity:0.784" fill="#000000" d="M 327.5,41.5 C 330.407,42.7341 332.741,44.7341 334.5,47.5C 332.851,49.6499 331.018,51.6499 329,53.5C 326.833,51.3333 324.667,49.1667 322.5,47C 324.373,45.2962 326.04,43.4628 327.5,41.5 Z"/></g>
<g><path style="opacity:0.735" fill="#000000" d="M 487.5,41.5 C 496.139,44.2883 496.639,48.2883 489,53.5C 486.833,51.3333 484.667,49.1667 482.5,47C 484.373,45.2962 486.04,43.4628 487.5,41.5 Z"/></g>
<g><path style="opacity:0.837" fill="#000000" d="M 309.5,42.5 C 312.167,42.5 314.833,42.5 317.5,42.5C 317.5,59.5 317.5,76.5 317.5,93.5C 314.833,93.5 312.167,93.5 309.5,93.5C 309.5,76.5 309.5,59.5 309.5,42.5 Z"/></g>
<g><path style="opacity:0.823" fill="#000000" d="M 350.5,42.5 C 353.5,42.5 356.5,42.5 359.5,42.5C 359.5,44.8333 359.5,47.1667 359.5,49.5C 352.5,47.8333 349.833,50.5 351.5,57.5C 354.5,57.5 357.5,57.5 360.5,57.5C 360.5,59.8333 360.5,62.1667 360.5,64.5C 357.5,64.5 354.5,64.5 351.5,64.5C 351.5,74.1667 351.5,83.8333 351.5,93.5C 348.833,93.5 346.167,93.5 343.5,93.5C 343.5,83.8333 343.5,74.1667 343.5,64.5C 341.167,64.5 338.833,64.5 336.5,64.5C 336.5,62.1667 336.5,59.8333 336.5,57.5C 338.833,57.5 341.167,57.5 343.5,57.5C 343.263,53.7267 343.763,50.0601 345,46.5C 346.456,44.5347 348.29,43.2013 350.5,42.5 Z"/></g>
<g><path style="opacity:0.997" fill="#070500" d="M 95.5,182.5 C 94.8333,183.5 94.1667,184.5 93.5,185.5C 92.8333,185.5 92.1667,185.5 91.5,185.5C 90.8333,184.5 90.1667,183.5 89.5,182.5C 89.7735,157.483 89.2735,132.483 88,107.5C 86.088,103.035 84.9213,98.3687 84.5,93.5C 84.2908,92.0055 83.6241,90.8388 82.5,90C 77.1731,88.8162 74.1731,90.9828 73.5,96.5C 69.7409,94.4402 68.5742,91.4402 70,87.5C 66.6397,89.3603 64.1397,92.027 62.5,95.5C 61.2362,93.7085 60.5695,91.7085 60.5,89.5C 61.7921,82.2078 66.1254,77.8745 73.5,76.5C 71.9788,75.0627 70.1454,74.396 68,74.5C 60.4159,77.5632 59.5825,76.0632 65.5,70C 61.8201,68.9726 58.6534,69.8059 56,72.5C 55.3333,70.8333 55.3333,69.1667 56,67.5C 62.2437,58.9821 70.0771,57.3155 79.5,62.5C 80.9008,59.1346 82.4008,55.8013 84,52.5C 88.7687,45.6986 95.2687,42.5319 103.5,43C 100.898,44.5536 99.7308,46.7202 100,49.5C 102.518,47.9722 104.685,48.3055 106.5,50.5C 102.187,53.4766 99.6872,57.4766 99,62.5C 104.647,56.1721 111.481,54.3388 119.5,57C 124.359,58.5045 126.859,61.6711 127,66.5C 124.091,63.6391 120.924,63.1391 117.5,65C 119.037,66.1096 119.703,67.6096 119.5,69.5C 116.335,68.9635 113.669,69.7969 111.5,72C 115.435,72.0838 119.102,73.0838 122.5,75C 124.661,77.1487 125.828,79.6487 126,82.5C 123.627,80.1499 121.127,79.9833 118.5,82C 121.769,85.4531 122.269,89.2865 120,93.5C 116.865,97.5974 114.865,96.9308 114,91.5C 109.225,87.7283 104.558,87.7283 100,91.5C 100.038,97.5458 98.7051,103.212 96,108.5C 95.5,133.164 95.3334,157.831 95.5,182.5 Z"/></g>
<g><path style="opacity:0.842" fill="#000000" d="M 230.5,57.5 C 237.257,57.1226 243.924,57.6226 250.5,59C 256.321,61.1431 259.321,65.3097 259.5,71.5C 256.753,71.8134 254.086,71.48 251.5,70.5C 250.191,66.6929 247.524,64.5263 243.5,64C 227.907,62.3789 222.74,68.8789 228,83.5C 234.502,88.1329 241.336,88.6329 248.5,85C 249.872,83.7581 250.872,82.2581 251.5,80.5C 254.086,79.52 256.753,79.1866 259.5,79.5C 258.895,86.9423 254.895,91.4423 247.5,93C 239.147,95.0535 231.147,94.0535 223.5,90C 217.883,84.2887 216.05,77.4553 218,69.5C 220.111,63.2195 224.278,59.2195 230.5,57.5 Z"/></g>
<g><path style="opacity:0.835" fill="#000000" d="M 274.5,57.5 C 280.509,57.3338 286.509,57.5005 292.5,58C 296.066,58.6998 298.9,60.5332 301,63.5C 302.423,73.4203 302.923,83.4203 302.5,93.5C 299.833,93.5 297.167,93.5 294.5,93.5C 294.66,91.8008 294.494,90.1341 294,88.5C 289.462,92.4593 284.129,94.4593 278,94.5C 273.657,94.1135 269.657,92.7802 266,90.5C 260.698,78.7894 264.531,72.2894 277.5,71C 283.143,70.1357 288.81,69.469 294.5,69C 292.221,64.5268 288.554,62.6935 283.5,63.5C 279.509,62.933 276.175,64.0996 273.5,67C 263.082,69.4005 261.749,67.0672 269.5,60C 271.315,59.2432 272.981,58.4098 274.5,57.5 Z M 283.5,75.5 C 287.167,75.5 290.833,75.5 294.5,75.5C 293.941,84.0484 289.274,88.0484 280.5,87.5C 277.139,87.8881 274.306,86.8881 272,84.5C 271.333,83.1667 271.333,81.8333 272,80.5C 275.54,77.9389 279.373,76.2723 283.5,75.5 Z"/></g>
<g><path style="opacity:0.828" fill="#000000" d="M 324.5,57.5 C 327.167,57.5 329.833,57.5 332.5,57.5C 332.5,69.5 332.5,81.5 332.5,93.5C 329.833,93.5 327.167,93.5 324.5,93.5C 324.5,81.5 324.5,69.5 324.5,57.5 Z"/></g>
<g><path style="opacity:0.846" fill="#000000" d="M 374.5,57.5 C 380.176,57.3339 385.843,57.5006 391.5,58C 401.386,61.3082 405.553,68.1415 404,78.5C 401.334,89.6452 394.167,94.9785 382.5,94.5C 365.791,93.6239 358.958,84.9572 362,68.5C 364.505,62.8218 368.671,59.1552 374.5,57.5 Z M 377.5,63.5 C 387.935,61.286 394.268,65.286 396.5,75.5C 394.316,85.8647 387.983,89.698 377.5,87C 370.026,83.8796 367.526,78.3796 370,70.5C 371.742,67.2543 374.242,64.921 377.5,63.5 Z"/></g>
<g><path style="opacity:0.824" fill="#000000" d="M 409.5,57.5 C 412.167,57.5 414.833,57.5 417.5,57.5C 417.34,59.1992 417.506,60.8659 418,62.5C 422.377,58.6096 427.544,56.943 433.5,57.5C 433.5,59.8333 433.5,62.1667 433.5,64.5C 425.729,63.2946 420.562,66.2946 418,73.5C 417.5,80.1583 417.334,86.825 417.5,93.5C 414.833,93.5 412.167,93.5 409.5,93.5C 409.5,81.5 409.5,69.5 409.5,57.5 Z"/></g>
<g><path style="opacity:0.873" fill="#000000" d="M 439.5,57.5 C 441.833,57.5 444.167,57.5 446.5,57.5C 446.34,59.1992 446.506,60.8659 447,62.5C 450.996,58.5562 455.83,56.8896 461.5,57.5C 467.55,56.6804 472.383,58.6804 476,63.5C 477.423,73.4203 477.923,83.4203 477.5,93.5C 474.833,93.5 472.167,93.5 469.5,93.5C 469.666,85.16 469.5,76.8267 469,68.5C 464.035,62.8377 458.201,62.0044 451.5,66C 449.951,67.214 448.785,68.714 448,70.5C 446.644,78.0952 446.144,85.7618 446.5,93.5C 444.167,93.5 441.833,93.5 439.5,93.5C 439.5,81.5 439.5,69.5 439.5,57.5 Z"/></g>
<g><path style="opacity:0.828" fill="#000000" d="M 484.5,57.5 C 487.167,57.5 489.833,57.5 492.5,57.5C 492.5,69.5 492.5,81.5 492.5,93.5C 489.833,93.5 487.167,93.5 484.5,93.5C 484.5,81.5 484.5,69.5 484.5,57.5 Z"/></g>
<g><path style="opacity:0.853" fill="#000000" d="M 536.5,64.5 C 536.5,74.1667 536.5,83.8333 536.5,93.5C 534.167,93.5 531.833,93.5 529.5,93.5C 529.66,91.8008 529.494,90.1341 529,88.5C 520.766,94.2893 511.933,95.456 502.5,92C 498.251,87.4537 497.418,82.2871 500,76.5C 501.214,74.9512 502.714,73.7845 504.5,73C 512.312,70.5744 520.312,69.4078 528.5,69.5C 528.439,66.2699 526.772,64.4365 523.5,64C 519.833,63.3333 516.167,63.3333 512.5,64C 508.607,67.1431 504.273,67.9764 499.5,66.5C 501.139,61.6953 504.473,58.862 509.5,58C 515.5,57.3333 521.5,57.3333 527.5,58C 531.279,59.2105 534.279,61.3772 536.5,64.5 Z M 518.5,75.5 C 522.167,75.5 525.833,75.5 529.5,75.5C 528.456,83.8039 523.622,87.8039 515,87.5C 506.194,87.9789 504.361,84.8122 509.5,78C 512.678,77.3405 515.678,76.5072 518.5,75.5 Z"/></g>
<g><path style="opacity:0.695" fill="#000000" d="M 253.5,101.5 C 260.866,104.212 261.199,107.545 254.5,111.5C 252.5,110.167 250.833,108.5 249.5,106.5C 250.857,104.814 252.19,103.148 253.5,101.5 Z"/></g>
<g><path style="opacity:0.695" fill="#000000" d="M 393.5,101.5 C 400.866,104.212 401.199,107.545 394.5,111.5C 392.5,110.167 390.833,108.5 389.5,106.5C 390.857,104.814 392.19,103.148 393.5,101.5 Z"/></g>
<g><path style="opacity:0.841" fill="#000000" d="M 361.5,105.5 C 363.833,105.5 366.167,105.5 368.5,105.5C 368.171,111.206 368.505,116.872 369.5,122.5C 372.317,120.183 374.984,117.683 377.5,115C 381.167,114.333 384.833,114.333 388.5,115C 385.167,117.667 381.833,120.333 378.5,123C 381.833,127.333 385.167,131.667 388.5,136C 385.5,136.667 382.5,136.667 379.5,136C 377.212,133.257 375.045,130.423 373,127.5C 369.466,129.522 367.966,132.522 368.5,136.5C 366.167,136.5 363.833,136.5 361.5,136.5C 361.5,126.167 361.5,115.833 361.5,105.5 Z"/></g>
<g><path style="opacity:0.778" fill="#000000" d="M 409.5,105.5 C 410.5,105.5 411.5,105.5 412.5,105.5C 412.5,108.5 412.5,111.5 412.5,114.5C 413.833,114.5 415.167,114.5 416.5,114.5C 416.5,116.5 416.5,118.5 416.5,120.5C 415.167,120.5 413.833,120.5 412.5,120.5C 412.335,123.85 412.502,127.183 413,130.5C 414.011,131.337 415.178,131.67 416.5,131.5C 416.5,133.167 416.5,134.833 416.5,136.5C 413.482,136.665 410.482,136.498 407.5,136C 407,135.5 406.5,135 406,134.5C 404.621,129.964 404.121,125.297 404.5,120.5C 403.167,120.5 401.833,120.5 400.5,120.5C 400.5,118.5 400.5,116.5 400.5,114.5C 401.833,114.5 403.167,114.5 404.5,114.5C 404.34,112.801 404.506,111.134 405,109.5C 406.667,108.267 408.167,106.933 409.5,105.5 Z"/></g>
<g><path style="opacity:0.789" fill="#000000" d="M 449.5,105.5 C 452.167,105.5 454.833,105.5 457.5,105.5C 457.335,109.182 457.501,112.848 458,116.5C 464.137,112.59 469.804,113.256 475,118.5C 476.304,124.423 476.804,130.423 476.5,136.5C 473.833,136.5 471.167,136.5 468.5,136.5C 468.666,131.489 468.499,126.489 468,121.5C 464.393,118.731 461.06,119.064 458,122.5C 457.501,127.155 457.334,131.821 457.5,136.5C 454.833,136.5 452.167,136.5 449.5,136.5C 449.5,126.167 449.5,115.833 449.5,105.5 Z"/></g>
<g><path style="opacity:0.845" fill="#000000" d="M 233.5,113.5 C 244.857,113.693 249.357,119.359 247,130.5C 241.988,137.537 235.488,139.204 227.5,135.5C 226.52,138.086 226.187,140.753 226.5,143.5C 224.167,143.5 221.833,143.5 219.5,143.5C 219.5,133.833 219.5,124.167 219.5,114.5C 222.394,114.042 224.894,114.709 227,116.5C 229.166,115.269 231.333,114.269 233.5,113.5 Z M 230.5,119.5 C 239.192,118.762 241.858,122.262 238.5,130C 234.286,132.269 230.453,131.769 227,128.5C 225.98,124.553 227.147,121.553 230.5,119.5 Z"/></g>
<g><path style="opacity:0.807" fill="#000000" d="M 329.5,113.5 C 334.711,113.44 339.211,115.107 343,118.5C 343.499,124.491 343.666,130.491 343.5,136.5C 340.606,136.958 338.106,136.291 336,134.5C 331.121,137.784 325.954,138.284 320.5,136C 317.019,132.603 316.686,128.936 319.5,125C 324.97,122.92 330.637,121.587 336.5,121C 334.884,119.923 333.051,119.423 331,119.5C 327.037,120.948 322.87,121.615 318.5,121.5C 318.393,119.097 319.393,117.264 321.5,116C 324.251,115.057 326.917,114.224 329.5,113.5 Z M 329.5,126.5 C 331.924,126.192 334.257,126.526 336.5,127.5C 333.824,131.152 330.158,132.486 325.5,131.5C 325.408,128.6 326.741,126.933 329.5,126.5 Z"/></g>
<g><path style="opacity:0.802" fill="#000000" d="M 431.5,113.5 C 436.641,113.619 441.141,115.285 445,118.5C 446.009,120.025 446.509,121.692 446.5,123.5C 444.143,123.663 441.81,123.497 439.5,123C 433.348,117.578 428.681,118.578 425.5,126C 427.44,131.072 431.106,132.738 436.5,131C 439.07,127.882 442.404,126.715 446.5,127.5C 444.951,134.548 440.451,137.881 433,137.5C 421.852,137.691 417.185,132.358 419,121.5C 421.731,116.395 425.898,113.728 431.5,113.5 Z"/></g>
<g><path style="opacity:0.788" fill="#000000" d="M 492.5,113.5 C 502.537,112.988 507.537,117.655 507.5,127.5C 500.8,127.17 494.134,127.503 487.5,128.5C 488.729,130.918 490.729,131.918 493.5,131.5C 498.032,129.85 502.699,129.35 507.5,130C 504.448,135.361 499.781,137.861 493.5,137.5C 480.241,135.815 476.574,128.982 482.5,117C 485.776,115.308 489.109,114.141 492.5,113.5 Z M 489.5,119.5 C 493.302,118.88 496.635,119.714 499.5,122C 495.459,122.827 491.459,122.66 487.5,121.5C 488.243,120.818 488.909,120.151 489.5,119.5 Z"/></g>
<g><path style="opacity:0.821" fill="#000000" d="M 536.5,118.5 C 536.5,124.5 536.5,130.5 536.5,136.5C 534.167,136.5 531.833,136.5 529.5,136.5C 529.666,131.489 529.499,126.489 529,121.5C 525.393,118.731 522.06,119.064 519,122.5C 518.501,127.155 518.334,131.821 518.5,136.5C 515.833,136.5 513.167,136.5 510.5,136.5C 510.5,129.167 510.5,121.833 510.5,114.5C 513.466,114.11 516.132,114.777 518.5,116.5C 524.991,112.597 530.991,113.264 536.5,118.5 Z"/></g>
<g><path style="opacity:0.864" fill="#000000" d="M 251.5,114.5 C 253.833,114.5 256.167,114.5 258.5,114.5C 258.5,121.833 258.5,129.167 258.5,136.5C 256.167,136.5 253.833,136.5 251.5,136.5C 251.5,129.167 251.5,121.833 251.5,114.5 Z"/></g>
<g><path style="opacity:0.821" fill="#000000" d="M 261.5,114.5 C 270.167,114.5 278.833,114.5 287.5,114.5C 287.785,116.288 287.452,117.955 286.5,119.5C 282.017,123.572 277.351,127.406 272.5,131C 277.489,131.499 282.489,131.666 287.5,131.5C 287.5,133.167 287.5,134.833 287.5,136.5C 278.833,136.5 270.167,136.5 261.5,136.5C 261.343,135.127 261.51,133.793 262,132.5C 266.072,128.55 270.238,124.717 274.5,121C 270.179,120.501 265.846,120.334 261.5,120.5C 261.5,118.5 261.5,116.5 261.5,114.5 Z"/></g>
<g><path style="opacity:0.842" fill="#000000" d="M 290.5,114.5 C 298.833,114.5 307.167,114.5 315.5,114.5C 315.66,116.199 315.494,117.866 315,119.5C 310.5,123.333 306,127.167 301.5,131C 306.155,131.499 310.821,131.666 315.5,131.5C 315.5,133.167 315.5,134.833 315.5,136.5C 307.167,136.5 298.833,136.5 290.5,136.5C 290.34,134.801 290.506,133.134 291,131.5C 295.167,128 299.333,124.5 303.5,121C 299.179,120.501 294.846,120.334 290.5,120.5C 290.5,118.5 290.5,116.5 290.5,114.5 Z"/></g>
<g><path style="opacity:0.864" fill="#000000" d="M 390.5,114.5 C 392.833,114.5 395.167,114.5 397.5,114.5C 397.5,121.833 397.5,129.167 397.5,136.5C 395.167,136.5 392.833,136.5 390.5,136.5C 390.5,129.167 390.5,121.833 390.5,114.5 Z"/></g>
</svg>
