<?xml version="1.0" standalone="no"?>
<!DOCTYPE svg PUBLIC "-//W3C//DTD SVG 20010904//EN"
 "http://www.w3.org/TR/2001/REC-SVG-20010904/DTD/svg10.dtd">
<svg version="1.0" xmlns="http://www.w3.org/2000/svg"
 width="403.000000pt" height="140.000000pt" viewBox="0 0 403.000000 140.000000"
 preserveAspectRatio="xMidYMid meet">

<g transform="translate(0.000000,140.000000) scale(0.100000,-0.100000)"
fill="#000000" stroke="none">
<path d="M705 1066 c-37 -17 -78 -61 -94 -103 -12 -28 -16 -31 -38 -22 -44 17
-90 11 -122 -17 -17 -14 -31 -34 -31 -45 0 -15 5 -17 31 -12 30 6 31 5 19 -17
-12 -22 -11 -22 22 -16 47 9 55 -3 17 -26 -33 -20 -62 -77 -53 -102 8 -21 17
-20 32 4 16 27 29 25 36 -5 8 -30 32 -33 39 -5 4 14 14 20 34 20 28 0 30 -3
47 -77 15 -62 20 -133 24 -348 2 -165 8 -275 15 -283 26 -33 32 14 38 296 6
272 16 368 42 410 17 26 97 7 97 -23 0 -19 24 -19 40 0 8 10 10 29 6 55 -6 36
-4 40 15 40 36 0 18 33 -31 57 -44 21 -44 21 -19 28 21 5 26 11 21 27 -5 19
-2 20 26 15 40 -8 44 15 7 39 -41 27 -99 29 -140 6 -40 -24 -46 -12 -15 28 25
32 25 40 0 40 -23 0 -24 4 -10 31 9 15 7 19 -7 19 -10 -1 -31 -7 -48 -14z"/>
<path d="M2327 1073 c-4 -3 -7 -89 -7 -190 l0 -183 30 0 30 0 0 190 0 190 -23
0 c-13 0 -27 -3 -30 -7z"/>
<path d="M2442 1068 c-17 -17 -15 -32 6 -51 17 -16 20 -15 40 6 22 23 22 24 4
40 -22 20 -34 21 -50 5z"/>
<path d="M2601 1054 c-11 -15 -21 -40 -21 -55 0 -24 -4 -29 -25 -29 -34 0 -37
-47 -2 -52 21 -3 22 -8 25 -110 l3 -108 29 0 30 0 0 110 0 110 30 0 c25 0 30
4 30 25 0 21 -5 25 -30 25 -34 0 -49 22 -30 45 7 8 23 15 37 15 20 0 24 4 21
23 -2 17 -10 23 -39 25 -30 3 -41 -2 -58 -24z"/>
<path d="M3640 1064 c-11 -13 -9 -19 12 -41 l26 -25 18 27 c17 27 17 28 -1 41
-24 18 -40 18 -55 -2z"/>
<path d="M1703 954 c-92 -46 -94 -186 -4 -238 24 -14 53 -20 95 -20 87 1 146
36 146 88 0 26 -45 19 -64 -9 -28 -43 -115 -46 -156 -5 -20 20 -28 93 -12 116
13 20 50 34 93 34 32 0 49 -7 76 -30 41 -36 63 -39 63 -7 0 66 -153 112 -237
71z"/>
<path d="M2030 948 c-43 -29 -52 -58 -18 -58 13 1 34 7 48 15 38 22 113 19
134 -4 17 -19 16 -20 -31 -26 -112 -15 -153 -27 -168 -48 -31 -45 -13 -100 40
-123 47 -19 84 -18 130 6 47 24 45 24 45 5 0 -10 10 -15 31 -15 l32 0 -6 103
c-3 56 -8 109 -11 117 -11 27 -40 38 -117 45 -68 6 -77 5 -109 -17z m180 -128
c0 -23 -24 -59 -47 -69 -82 -38 -170 23 -90 63 35 17 137 22 137 6z"/>
<path d="M2440 835 l0 -135 25 0 25 0 0 135 0 135 -25 0 -25 0 0 -135z"/>
<path d="M2783 954 c-88 -43 -94 -176 -12 -237 37 -27 136 -34 181 -13 76 36
104 157 50 217 -41 46 -157 63 -219 33z m138 -40 c44 -22 61 -69 43 -113 -19
-46 -41 -60 -92 -61 -106 0 -140 127 -47 178 28 16 61 15 96 -4z"/>
<path d="M3077 963 c-4 -3 -7 -64 -7 -135 l0 -128 29 0 28 0 5 80 c5 92 26
125 85 136 27 5 33 11 33 31 0 22 -3 24 -32 18 -18 -4 -43 -13 -55 -21 -20
-13 -23 -12 -33 6 -10 19 -40 27 -53 13z"/>
<path d="M3300 835 l0 -135 24 0 c22 0 23 4 29 87 5 79 8 90 32 110 31 27 80
30 113 7 20 -14 22 -23 22 -110 l0 -94 30 0 30 0 0 84 c0 46 -3 98 -6 116 -13
62 -101 88 -181 55 -33 -14 -38 -14 -45 0 -5 8 -18 15 -28 15 -19 0 -20 -8
-20 -135z"/>
<path d="M3640 835 l0 -135 25 0 25 0 0 135 0 135 -25 0 -25 0 0 -135z"/>
<path d="M3826 960 c-23 -4 -48 -18 -59 -31 l-19 -24 30 -3 c17 -2 40 2 51 7
31 17 107 13 127 -6 15 -16 15 -17 -2 -24 -11 -4 -35 -8 -55 -8 -19 -1 -59 -8
-88 -17 -40 -11 -54 -21 -62 -41 -13 -34 -3 -76 21 -98 26 -24 114 -25 159 -2
31 15 36 16 43 2 5 -8 20 -15 33 -15 25 0 25 0 25 105 0 100 -1 107 -25 129
-15 14 -44 26 -71 30 -52 7 -53 7 -108 -4z m144 -146 c0 -8 -13 -29 -29 -45
-24 -23 -38 -29 -74 -29 -57 0 -76 19 -53 54 17 27 36 33 109 35 37 1 47 -2
47 -15z"/>
<path d="M1890 615 c-10 -12 -10 -18 0 -30 16 -19 39 -19 46 0 6 15 -11 45
-26 45 -4 0 -13 -7 -20 -15z"/>
<path d="M2940 615 c-10 -12 -10 -18 0 -30 16 -19 39 -19 46 0 6 15 -11 45
-26 45 -4 0 -13 -7 -20 -15z"/>
<path d="M2712 488 c3 -109 4 -113 26 -116 14 -2 22 2 22 11 0 8 8 25 18 38
l19 22 23 -31 c22 -30 62 -48 80 -37 6 4 -6 27 -26 53 l-35 47 30 25 c17 14
31 28 31 33 0 17 -49 5 -87 -23 l-42 -31 -7 61 c-6 55 -9 60 -31 60 l-24 0 3
-112z"/>
<path d="M3052 588 c-7 -7 -12 -20 -12 -30 0 -10 -7 -18 -15 -18 -9 0 -15 -9
-15 -25 0 -16 6 -25 15 -25 11 0 15 -11 15 -42 0 -54 7 -64 48 -73 28 -6 32
-4 32 13 0 11 -5 22 -10 24 -6 2 -13 20 -17 41 -4 30 -3 37 11 37 10 0 16 9
16 25 0 16 -6 25 -15 25 -10 0 -15 10 -15 30 0 31 -17 39 -38 18z"/>
<path d="M3380 485 l0 -115 25 0 c23 0 25 3 25 49 0 53 17 81 51 81 24 0 39
-36 39 -91 0 -35 3 -39 25 -39 24 0 25 2 25 64 0 58 -3 67 -27 86 -23 18 -36
20 -70 15 l-43 -6 0 35 c0 32 -3 36 -25 36 l-25 0 0 -115z"/>
<path d="M1650 431 c0 -111 0 -111 24 -111 19 0 25 6 28 27 3 26 6 27 49 25
65 -5 104 28 104 88 0 59 -31 84 -95 76 -25 -3 -49 -6 -55 -6 -5 -1 -20 2 -32
5 -23 7 -23 7 -23 -104z m140 55 c15 -20 9 -56 -12 -70 -25 -16 -72 4 -76 32
-5 31 15 52 48 52 15 0 33 -7 40 -14z"/>
<path d="M1890 455 c0 -84 1 -86 23 -83 21 3 22 8 22 83 0 75 -1 80 -22 83
-22 3 -23 1 -23 -83z"/>
<path d="M1964 525 c-10 -25 6 -35 53 -35 l45 0 -53 -50 c-37 -35 -50 -53 -43
-60 7 -7 47 -10 100 -8 71 2 89 6 89 18 0 11 -14 16 -54 18 l-53 3 57 54 c32
30 54 58 51 64 -11 18 -185 15 -192 -4z"/>
<path d="M2184 525 c-10 -24 5 -35 49 -35 l42 -1 -49 -44 c-71 -63 -61 -77 51
-73 70 2 88 6 88 18 0 11 -13 16 -47 18 -27 2 -48 6 -47 10 0 4 20 23 44 42
80 65 73 80 -41 80 -65 0 -86 -3 -90 -15z"/>
<path d="M2424 530 c-12 -4 -24 -16 -28 -25 -6 -16 0 -17 60 -10 47 5 64 4 60
-4 -4 -6 -18 -11 -32 -11 -14 0 -40 -7 -59 -14 -29 -12 -35 -20 -35 -44 0 -42
21 -55 72 -48 53 8 68 8 93 4 18 -3 20 2 18 62 -1 53 -6 68 -24 82 -23 19 -88
23 -125 8z m96 -88 c0 -17 -25 -32 -52 -32 -30 0 -35 9 -16 28 13 13 68 17 68
4z"/>
<path d="M2934 527 c-3 -8 -4 -45 -2 -83 3 -63 5 -69 26 -72 21 -3 22 -1 22
82 0 80 -1 86 -20 86 -11 0 -23 -6 -26 -13z"/>
<path d="M3173 516 c-37 -32 -39 -99 -4 -127 36 -30 124 -26 156 6 14 13 25
29 25 35 0 15 -33 12 -56 -5 -27 -20 -68 -18 -89 5 -17 18 -17 21 -1 45 19 28
52 33 82 10 27 -20 68 -20 60 1 -3 9 -6 17 -6 20 0 2 -13 10 -30 19 -45 23
-104 19 -137 -9z"/>
<path d="M3642 528 c-13 -7 -27 -27 -34 -49 -9 -32 -8 -42 6 -64 30 -45 113
-60 161 -29 40 26 29 35 -37 32 -85 -4 -87 16 -3 22 36 3 65 8 65 13 0 4 0 16
0 27 0 34 -39 60 -89 59 -25 0 -56 -5 -69 -11z m93 -38 c4 -6 -10 -10 -35 -10
-25 0 -39 4 -35 10 3 6 19 10 35 10 16 0 32 -4 35 -10z"/>
<path d="M3834 527 c-3 -8 -4 -45 -2 -83 3 -66 4 -69 28 -69 23 0 25 4 28 50
4 59 16 77 51 73 24 -3 27 -8 35 -66 8 -56 11 -63 30 -60 18 3 22 11 24 52 2
27 1 60 -2 72 -7 27 -57 48 -93 40 -40 -10 -46 -10 -71 -2 -15 5 -24 3 -28 -7z"/>
</g>
</svg>
