<svg version="1.1" id="Layer_1" x="0px" y="0px" viewBox="0 0 536.528 185.614" xml:space="preserve"><style type="text/css">
	.st0{fill:#FFDB00;}
</style><g><g><g><path class="st0" d="M89.297,108.786c0,0-4.146-3.319-4.185-17.008c0,0-1.755-3.013-6.156-1.942
				c-5.511,1.341-4.475,7.281-4.475,7.281s-4.034-1.519-4.336-4.816c-0.244-2.983,1.328-4.169,1.328-4.169
				c-1.384-0.097-6.401,1.854-8.38,7.953c0,0-4.996-5.498,0.731-13.181c4.215-5.621,10.735-5.572,10.735-5.572
				c-0.714-1.675-3.483-3.293-7.503-2.671c-2.603,0.403-4.524,2.615-4.524,2.615s-0.344-0.858,0.216-2.552
				c0.947-2.864,3.833-4.151,3.833-4.151c-5.392-2.716-10.849,2.473-10.849,2.473s-1.228-4.789,3.674-9.193
				c6.255-5.619,16.123-4.36,21.841-0.048c0,0-0.664-9.918,9.018-16.815c7.706-5.49,13.753-3.447,13.753-3.447
				c-3.953,1.735-4.853,5.618-4.522,6.848c0,0,2.087-1.668,5.566-1.192c1.868,0.255,2.575,1.591,2.575,1.591
				c-3.832,1.003-8.551,8.437-8.584,12.17c0,0,3.643-4.287,8.188-5.729c6.896-2.221,13.251-0.414,16.845,2.557
				c3.777,3.189,4.138,7.308,4.138,7.308s-2.555-2.972-7.336-2.907c-2.423,0.033-3.401,0.659-3.401,0.659s1.599,0.457,2.501,2.739
				c0.63,1.594,0.514,2.938,0.514,2.938c-2.197-1.383-4.304-1.921-7.101,0.105c-1.842,1.341-1.822,2.553-1.822,2.553
				c1.813-0.549,6.85-1.158,11.007,2.166c3.804,3.066,4.425,7.446,4.425,7.446c-4.954-3.875-8.229-0.264-8.229-0.264
				c1.68,1.202,3.161,3.356,3.2,5.929c0.088,5.858-5.555,8.454-5.555,8.454c0.117-2.531-1.548-6.539-7.809-7.724
				c-5.258-0.995-8.359,2.588-8.359,2.588c0.03,13.36-3.945,17.008-3.945,17.008l-1.072,74.393l90.372-90.372L92.807,0L0,92.807
				l90.372,90.372l-1.072-74.393H89.297z"></path></g><path d="M128.224,67.095c0,0-0.361-4.12-4.138-7.308c-3.594-2.971-9.949-4.779-16.845-2.557c-4.545,1.443-8.188,5.729-8.188,5.729
			c0.033-3.733,4.752-11.167,8.584-12.17c0,0-0.707-1.336-2.574-1.591c-3.479-0.476-5.566,1.192-5.566,1.192
			c-0.331-1.23,0.569-5.113,4.522-6.848c0,0-6.047-2.043-13.753,3.447c-9.682,6.898-9.018,16.815-9.018,16.815
			c-5.717-4.311-15.586-5.571-21.841,0.048c-4.903,4.404-3.674,9.193-3.674,9.193s5.457-5.188,10.849-2.473
			c0,0-2.885,1.287-3.833,4.151c-0.56,1.694-0.216,2.552-0.216,2.552s1.921-2.212,4.524-2.615c4.02-0.622,6.789,0.996,7.503,2.671
			c0,0-6.52-0.048-10.735,5.572c-5.726,7.683-0.731,13.181-0.731,13.181c1.979-6.099,6.996-8.05,8.379-7.953
			c0,0-1.572,1.187-1.328,4.169c0.301,3.297,4.336,4.816,4.336,4.816s-1.036-5.941,4.475-7.281c4.4-1.071,6.156,1.942,6.156,1.942
			c0.039,13.69,4.185,17.008,4.185,17.008h0.003l1.072,74.393l2.435,2.435l2.435-2.435l1.072-74.393c0,0,3.976-3.648,3.945-17.008
			c0,0,3.1-3.583,8.359-2.588c6.261,1.185,7.926,5.193,7.809,7.724c0,0,5.643-2.596,5.555-8.454c-0.039-2.574-1.52-4.727-3.2-5.929
			c0,0,3.275-3.611,8.229,0.264c0,0-0.621-4.38-4.425-7.446c-4.157-3.324-9.194-2.715-11.007-2.166c0,0-0.02-1.212,1.822-2.553
			c2.797-2.026,4.904-1.488,7.101-0.105c0,0,0.116-1.344-0.514-2.938c-0.902-2.282-2.501-2.739-2.501-2.739s0.978-0.626,3.401-0.659
			C125.67,64.124,128.224,67.095,128.224,67.095z"></path></g><g><path d="M264.192,83.41c0,6.9,5.554,10.488,14.386,10.488c8.107,0,14.214-3.277,16.87-7.314v6.52h6.693V71.129
			c0-8.521-5.382-13.317-18.181-13.317c-10.66,0-16.732,3.139-18.25,9.867h7.107c1.311-3.07,4.795-4.554,11.178-4.554
			c8.245,0,10.902,2.829,11.247,7.003c-8.211,0.276-15.318,0.966-21.148,2.587C267.987,74.406,264.192,77.373,264.192,83.41z
			 M295.276,74.82v3.829c0,5.692-6.589,9.97-15.076,9.97c-5.382,0-9.004-1.69-9.004-5.727c0-3.105,2.346-4.83,6.727-5.968
			C282.097,75.821,288.307,75.131,295.276,74.82z"></path><path d="M351.508,52.189c0-1.932,0.621-3.001,3.174-3.001h5.002v-5.485h-6.451c-5.968,0-8.625,2.691-8.625,7.383v7.521h-6.934
			v5.52h6.934v28.979h6.9V64.125h8.245v-5.52h-8.245V52.189z"></path><rect x="325.392" y="58.605" width="6.9" height="34.499"></rect><rect x="310.282" y="43.702" width="6.9" height="49.403"></rect><rect x="324.939" y="43.559" transform="matrix(0.7071 -0.7071 0.7071 0.7071 62.7548 246.428)" width="7.806" height="7.806"></rect><path d="M461.627,57.812c-7.417,0-12.558,3.001-15.249,7.383v-6.589h-6.727v34.499h6.9V75.062c0-6.451,4.278-11.661,13.213-11.661
			c7.797,0,10.66,3.829,10.66,9.522v20.182h6.9V71.991C477.325,63.332,472.046,57.812,461.627,57.812z"></path><rect x="485.466" y="58.605" width="6.9" height="34.499"></rect><path d="M429.682,64.332h3.933v-5.83h-3.519c-6.417,0-10.902,3.001-13.041,7.59l-0.034-7.486h-6.693v34.499h6.9V76.442
			C417.228,69.749,420.954,64.332,429.682,64.332z"></path><path d="M403.808,75.786c0-10.867-7.314-17.974-21.045-17.974s-21.045,7.107-21.045,17.974v0.138
			c0,10.867,7.314,17.974,21.045,17.974s21.045-7.107,21.045-17.974V75.786z M396.736,75.89c0,7.314-3.933,12.592-13.972,12.592
			c-10.039,0-13.972-5.278-13.972-12.592v-0.069c0-7.314,3.933-12.592,13.972-12.592c10.039,0,13.972,5.278,13.972,12.592V75.89z"></path><path d="M498.575,83.41c0,6.9,5.554,10.488,14.386,10.488c8.107,0,14.214-3.277,16.87-7.314v6.52h6.693V71.129
			c0-8.521-5.382-13.317-18.181-13.317c-10.66,0-16.732,3.139-18.25,9.867h7.107c1.311-3.07,4.795-4.554,11.178-4.554
			c8.245,0,10.902,2.829,11.247,7.003c-8.211,0.276-15.318,0.966-21.148,2.587C502.37,74.406,498.575,77.373,498.575,83.41z
			 M529.659,74.82v3.829c0,5.692-6.589,9.97-15.076,9.97c-5.382,0-9.004-1.69-9.004-5.727c0-3.105,2.346-4.83,6.727-5.968
			C516.48,75.821,522.69,75.131,529.659,74.82z"></path><rect x="485.013" y="43.559" transform="matrix(0.7071 -0.7071 0.7071 0.7071 109.6392 359.617)" width="7.806" height="7.806"></rect><path d="M239.283,88.447c-10.177,0-14.076-5.278-14.076-12.558v-0.069c0-7.279,3.898-12.558,14.076-12.558
			c7.659,0,11.73,3.07,13.144,7.9h7.21c-1.449-8.487-8.866-13.351-20.424-13.351c-13.731,0-21.079,7.107-21.079,17.974v0.138
			c0,10.867,7.314,17.974,21.079,17.974c11.902,0,19.32-5.209,20.493-14.041H252.6C251.565,84.997,247.425,88.447,239.283,88.447z"></path><path d="M493.674,114.697c-8.848,0-13.602,3.944-13.602,11.108v0.086c0,7.142,4.669,11.107,13.645,11.107
			c7.419,0,11.769-2.558,12.899-6.78h-6.418c-0.831,1.45-2.687,2.474-6.354,2.474c-5.372,0-7.249-2.26-7.462-5.608h20.468v-1.514
			C506.85,118.365,501.946,114.697,493.674,114.697z M486.468,123.311c0.491-2.857,2.516-4.499,7.185-4.499
			c4.499,0,6.503,1.62,6.908,4.499H486.468z"></path><path d="M235.656,114.697c-4.605,0-7.803,1.663-9.53,4.243l-0.021-3.752h-5.991v28.484h6.226v-10.106
			c1.876,2.111,4.967,3.433,9.125,3.433c7.675,0,11.961-4.328,11.961-11.107v-0.171
			C247.425,118.983,243.119,114.697,235.656,114.697z M241.051,125.933c0,3.923-2.132,6.503-7.206,6.503
			c-5.032,0-7.591-2.58-7.591-6.46v-0.17c0-3.902,2.558-6.503,7.611-6.503c5.096,0,7.186,2.58,7.186,6.546V125.933z"></path><path d="M526.508,114.697c-4.328,0-7.419,1.791-9.104,4.371l-0.021-3.881h-6.034v21.321h6.226v-11.151
			c0-3.177,2.281-5.842,6.972-5.842c4.2,0,5.757,2.004,5.757,4.862v12.131h6.226v-12.963
			C536.528,118.194,532.947,114.697,526.508,114.697z"></path><polygon points="286.953,118.748 286.953,115.188 262.754,115.188 262.754,119.92 277.85,119.92 262.541,132.947 262.541,136.508 
			287.06,136.508 287.06,131.775 271.624,131.775 		"></polygon><rect x="391.287" y="103.604" transform="matrix(0.7071 -0.7071 0.7071 0.7071 40.0129 310.2579)" width="6.453" height="6.453"></rect><polygon points="379.142,115.188 368.482,124.782 368.482,105.977 362.256,105.977 362.256,136.508 368.482,136.508 
			368.482,131.178 373.3,127.063 380.208,136.508 387.82,136.508 378.034,123.353 387.82,115.188 		"></polygon><rect x="391.401" y="115.188" width="6.226" height="21.321"></rect><path d="M411.698,106.063l-6.183,3.944v5.181h-3.923v4.733h3.923v10.938c0,3.945,2.196,5.65,6.375,5.65h4.286v-4.733h-2.345
			c-1.684,0-2.132-0.618-2.132-2.004v-9.85h4.477v-4.733h-4.477V106.063z"></path><path d="M432.975,132.329c-5.372,0-7.398-2.686-7.398-6.46v-0.043c0-3.795,2.026-6.46,7.398-6.46c3.838,0,6.013,1.428,6.78,3.667
			h6.481c-0.917-5.437-6.013-8.336-13.325-8.336c-8.614,0-13.731,4.136-13.731,11.087v0.128c0,6.951,5.117,11.087,13.731,11.087
			c7.462,0,12.579-3.048,13.368-8.656h-6.418C439.18,130.709,437.026,132.329,432.975,132.329z"></path><path d="M331.342,114.697c-7.121,0-11.172,1.983-12.068,6.29h6.311c0.66-1.45,2.43-2.175,5.799-2.175
			c4.286,0,5.672,1.385,5.842,3.496c-4.904,0.171-9.211,0.661-12.75,1.599c-3.753,1.002-6.183,2.772-6.183,6.481
			c0,4.264,3.539,6.609,9.189,6.609c4.626,0,8.208-1.726,9.914-4.051l0.021,3.561h5.97v-13.709
			C343.388,117.448,339.508,114.697,331.342,114.697z M337.248,127.724c0,2.729-3.475,4.882-8.038,4.882
			c-2.814,0-4.563-0.831-4.563-2.601c0-1.535,1.13-2.409,3.454-2.985c2.175-0.554,5.436-0.917,9.146-1.109V127.724z"></path><path d="M465.596,114.697c-4.243,0-7.313,1.748-8.997,4.328l0.042-13.048h-6.225v30.531h6.225v-11.151
			c0-3.177,2.26-5.842,6.994-5.842c4.157,0,5.735,2.004,5.735,4.862v12.131h6.226v-12.963
			C475.595,118.194,471.992,114.697,465.596,114.697z"></path><rect x="251.853" y="103.604" transform="matrix(0.7071 -0.7071 0.7071 0.7071 -0.8279 211.6616)" width="6.453" height="6.453"></rect><rect x="251.966" y="115.188" width="6.226" height="21.321"></rect><polygon points="315.224,118.748 315.224,115.188 291.025,115.188 291.025,119.92 306.12,119.92 290.812,132.947 290.812,136.508 
			315.33,136.508 315.33,131.775 299.895,131.775 		"></polygon></g></g></svg>