<?xml version="1.0" encoding="UTF-8"?>
<svg xmlns="http://www.w3.org/2000/svg" xmlns:xlink="http://www.w3.org/1999/xlink" width="191px" height="60px" viewBox="0 0 149 51" version="1.1">
<defs>
<filter id="alpha" filterUnits="objectBoundingBox" x="0%" y="0%" width="100%" height="100%">
  <feColorMatrix type="matrix" in="SourceGraphic" values="0 0 0 0 1 0 0 0 0 1 0 0 0 0 1 0 0 0 1 0"/>
</filter>
<mask id="mask0">
  <g filter="url(#alpha)">
<rect x="0" y="0" width="149" height="51" style="fill:rgb(0%,0%,0%);fill-opacity:0.768627;stroke:none;"/>
  </g>
</mask>
<clipPath id="clip1">
  <rect x="0" y="0" width="149" height="51"/>
</clipPath>
<g id="surface5" clip-path="url(#clip1)">
<path style=" stroke:none;fill-rule:evenodd;fill:rgb(99.607843%,100%,99.607843%);fill-opacity:1;" d="M 10.109375 -0.375 C 18.59375 -0.375 27.078125 -0.375 35.566406 -0.375 C 37.332031 1.492188 38.082031 3.742188 37.8125 6.375 C 37.21875 11.609375 36.96875 16.859375 37.0625 22.125 C 38.863281 22.042969 40.234375 22.792969 41.179688 24.375 C 42.429688 26.375 43.675781 28.375 44.925781 30.375 C 45.25 35.933594 44.75 41.433594 43.425781 46.875 C 41.085938 47.347656 38.714844 47.847656 36.3125 48.375 C 35.796875 49.136719 35.296875 49.886719 34.816406 50.625 C 26.582031 50.625 18.34375 50.625 10.109375 50.625 C 9.628906 49.886719 9.128906 49.136719 8.609375 48.375 C 6.210938 47.847656 3.839844 47.347656 1.496094 46.875 C 1.101562 43.726562 0.476562 40.726562 -0.375 37.875 C -0.375 35.375 -0.375 32.875 -0.375 30.375 C 1.167969 28.554688 2.539062 26.554688 3.742188 24.375 C 4.691406 22.792969 6.0625 22.042969 7.863281 22.125 C 8.03125 16.601562 7.78125 11.101562 7.113281 5.625 C 7.132812 3.019531 8.132812 1.019531 10.109375 -0.375 Z M 11.605469 1.875 C 19.28125 1.636719 26.890625 1.886719 34.441406 2.625 C 34.816406 3.375 35.191406 4.125 35.566406 4.875 C 34.777344 12.839844 34.28125 20.839844 34.066406 28.875 C 26.332031 28.875 18.59375 28.875 10.855469 28.875 C 10.292969 20.378906 10.167969 11.878906 10.480469 3.375 C 11.019531 2.96875 11.394531 2.46875 11.605469 1.875 Z M 7.113281 24.375 C 7.519531 24.421875 7.769531 24.671875 7.863281 25.125 C 6.988281 26.875 6.113281 28.625 5.242188 30.375 C 4.722656 29.980469 4.347656 29.480469 4.117188 28.875 C 5.125 27.355469 6.121094 25.855469 7.113281 24.375 Z M 37.0625 24.375 C 38.652344 25.542969 39.902344 27.042969 40.804688 28.875 C 40.578125 29.480469 40.203125 29.980469 39.683594 30.375 C 38.59375 28.445312 37.722656 26.445312 37.0625 24.375 Z M 10.855469 31.125 C 18.609375 30.875 26.347656 31.125 34.066406 31.875 C 35.125 34.296875 35.871094 36.796875 36.3125 39.375 C 27.078125 39.375 17.84375 39.375 8.609375 39.375 C 9.207031 36.582031 9.957031 33.832031 10.855469 31.125 Z M 2.621094 31.875 C 3.082031 31.957031 3.457031 32.207031 3.742188 32.625 C 4.242188 36.875 4.242188 41.125 3.742188 45.375 C 2.609375 40.851562 2.234375 36.351562 2.621094 31.875 Z M 41.554688 31.875 C 42.636719 32.351562 43.136719 33.226562 43.054688 34.5 C 42.386719 38.117188 41.765625 41.742188 41.179688 45.375 C 40.589844 40.8125 40.714844 36.3125 41.554688 31.875 Z M 7.113281 41.625 C 17.347656 41.625 27.578125 41.625 37.8125 41.625 C 37.8125 42.875 37.8125 44.125 37.8125 45.375 C 27.578125 45.375 17.347656 45.375 7.113281 45.375 C 7.113281 44.125 7.113281 42.875 7.113281 41.625 Z M 7.113281 41.625 "/>
</g>
<mask id="mask1">
  <g filter="url(#alpha)">
<rect x="0" y="0" width="149" height="51" style="fill:rgb(0%,0%,0%);fill-opacity:0.690196;stroke:none;"/>
  </g>
</mask>
<clipPath id="clip2">
  <rect x="0" y="0" width="149" height="51"/>
</clipPath>
<g id="surface8" clip-path="url(#clip2)">
<path style=" stroke:none;fill-rule:evenodd;fill:rgb(99.607843%,100%,99.607843%);fill-opacity:1;" d="M 22.089844 5.625 C 24.234375 7.640625 25.855469 10.140625 26.953125 13.125 C 27.453125 13.875 27.453125 14.625 26.953125 15.375 C 25.347656 15.835938 23.726562 16.335938 22.089844 16.875 C 22.871094 18.574219 22.996094 20.324219 22.460938 22.125 C 20.648438 19.246094 19.027344 16.246094 17.59375 13.125 C 19.273438 12.394531 21.023438 12.144531 22.835938 12.375 C 22.683594 10.113281 22.433594 7.863281 22.089844 5.625 Z M 22.089844 5.625 "/>
</g>
<mask id="mask2">
  <g filter="url(#alpha)">
<rect x="0" y="0" width="149" height="51" style="fill:rgb(0%,0%,0%);fill-opacity:0.847059;stroke:none;"/>
  </g>
</mask>
<clipPath id="clip3">
  <rect x="0" y="0" width="149" height="51"/>
</clipPath>
<g id="surface11" clip-path="url(#clip3)">
<path style=" stroke:none;fill-rule:evenodd;fill:rgb(99.607843%,100%,99.607843%);fill-opacity:1;" d="M 70.007812 25.125 C 71.503906 25.125 73.003906 25.125 74.5 25.125 C 73.460938 31.628906 72.335938 38.128906 71.128906 44.625 C 69.859375 45.304688 68.484375 45.554688 67.011719 45.375 C 67.929688 38.613281 68.925781 31.863281 70.007812 25.125 Z M 70.007812 25.125 "/>
</g>
<mask id="mask3">
  <g filter="url(#alpha)">
<rect x="0" y="0" width="149" height="51" style="fill:rgb(0%,0%,0%);fill-opacity:0.827451;stroke:none;"/>
  </g>
</mask>
<clipPath id="clip4">
  <rect x="0" y="0" width="149" height="51"/>
</clipPath>
<g id="surface14" clip-path="url(#clip4)">
<path style=" stroke:none;fill-rule:evenodd;fill:rgb(99.607843%,100%,99.607843%);fill-opacity:1;" d="M 99.957031 25.875 C 101.453125 25.875 102.953125 25.875 104.449219 25.875 C 104.628906 27.351562 104.378906 28.726562 103.699219 30 C 104.902344 30.785156 105.402344 31.910156 105.199219 33.375 C 104.449219 33.375 103.699219 33.375 102.953125 33.375 C 102.949219 35.648438 102.699219 37.898438 102.203125 40.125 C 103.070312 41.828125 103.445312 43.578125 103.328125 45.375 C 101.386719 46.484375 99.640625 46.234375 98.085938 44.625 C 97.53125 40.882812 97.902344 37.257812 99.207031 33.75 C 97.59375 32.480469 97.71875 31.105469 99.582031 29.625 C 99.953125 28.398438 100.078125 27.148438 99.957031 25.875 Z M 99.957031 25.875 "/>
</g>
<mask id="mask4">
  <g filter="url(#alpha)">
<rect x="0" y="0" width="149" height="51" style="fill:rgb(0%,0%,0%);fill-opacity:0.827451;stroke:none;"/>
  </g>
</mask>
<clipPath id="clip5">
  <rect x="0" y="0" width="149" height="51"/>
</clipPath>
<g id="surface17" clip-path="url(#clip5)">
<path style=" stroke:none;fill-rule:evenodd;fill:rgb(99.607843%,100%,99.607843%);fill-opacity:1;" d="M 148.625 30.375 C 148.625 31.375 148.625 32.375 148.625 33.375 C 147.875 33.375 147.128906 33.375 146.378906 33.375 C 146.375 35.648438 146.125 37.898438 145.628906 40.125 C 146.496094 41.828125 146.871094 43.578125 146.753906 45.375 C 144.8125 46.484375 143.066406 46.234375 141.511719 44.625 C 140.957031 40.882812 141.332031 37.257812 142.636719 33.75 C 141.019531 32.480469 141.144531 31.105469 143.011719 29.625 C 143.378906 28.398438 143.503906 27.148438 143.382812 25.875 C 144.882812 25.875 146.378906 25.875 147.875 25.875 C 148.054688 27.351562 147.804688 28.726562 147.128906 30 C 147.574219 30.347656 148.074219 30.472656 148.625 30.375 Z M 148.625 30.375 "/>
</g>
<mask id="mask5">
  <g filter="url(#alpha)">
<rect x="0" y="0" width="149" height="51" style="fill:rgb(0%,0%,0%);fill-opacity:0.823529;stroke:none;"/>
  </g>
</mask>
<clipPath id="clip6">
  <rect x="0" y="0" width="149" height="51"/>
</clipPath>
<g id="surface20" clip-path="url(#clip6)">
<path style=" stroke:none;fill-rule:evenodd;fill:rgb(99.607843%,100%,99.607843%);fill-opacity:1;" d="M 78.242188 30.375 C 80.628906 30.015625 82.75 30.515625 84.609375 31.875 C 84.648438 36.394531 84.273438 40.894531 83.484375 45.375 C 81.199219 45.273438 78.953125 45.523438 76.746094 46.125 C 73.542969 44.746094 72.917969 42.496094 74.875 39.375 C 76.171875 37.789062 77.792969 36.664062 79.742188 36 C 78.1875 35.855469 76.6875 35.480469 75.25 34.875 C 75.972656 33.15625 76.972656 31.65625 78.242188 30.375 Z M 78.992188 40.125 C 79.902344 40.871094 79.777344 41.621094 78.617188 42.375 C 78.265625 41.566406 78.390625 40.816406 78.992188 40.125 Z M 78.992188 40.125 "/>
</g>
<mask id="mask6">
  <g filter="url(#alpha)">
<rect x="0" y="0" width="149" height="51" style="fill:rgb(0%,0%,0%);fill-opacity:0.796078;stroke:none;"/>
  </g>
</mask>
<clipPath id="clip7">
  <rect x="0" y="0" width="149" height="51"/>
</clipPath>
<g id="surface23" clip-path="url(#clip7)">
<path style=" stroke:none;fill-rule:evenodd;fill:rgb(99.607843%,100%,99.607843%);fill-opacity:1;" d="M 89.476562 40.125 C 85.800781 36.929688 85.800781 33.804688 89.476562 30.75 C 91.847656 30.015625 93.96875 30.390625 95.839844 31.875 C 96.578125 33.695312 96.078125 34.945312 94.339844 35.625 C 93.296875 34.789062 92.175781 34.414062 90.972656 34.5 C 97.285156 39.269531 96.914062 43.144531 89.847656 46.125 C 84.863281 43.988281 84.738281 41.988281 89.476562 40.125 Z M 89.476562 40.125 C 90.660156 40.5 91.035156 41.25 90.597656 42.375 C 89.820312 41.816406 89.445312 41.066406 89.476562 40.125 Z M 89.476562 40.125 "/>
</g>
<mask id="mask7">
  <g filter="url(#alpha)">
<rect x="0" y="0" width="149" height="51" style="fill:rgb(0%,0%,0%);fill-opacity:0.796078;stroke:none;"/>
  </g>
</mask>
<clipPath id="clip8">
  <rect x="0" y="0" width="149" height="51"/>
</clipPath>
<g id="surface26" clip-path="url(#clip8)">
<path style=" stroke:none;fill-rule:evenodd;fill:rgb(99.607843%,100%,99.607843%);fill-opacity:1;" d="M 108.941406 40.125 C 105.265625 36.929688 105.265625 33.804688 108.941406 30.75 C 111.316406 30.015625 113.4375 30.390625 115.304688 31.875 C 116.042969 33.695312 115.546875 34.945312 113.808594 35.625 C 112.765625 34.789062 111.644531 34.414062 110.441406 34.5 C 116.753906 39.269531 116.378906 43.144531 109.316406 46.125 C 104.328125 43.988281 104.203125 41.988281 108.941406 40.125 Z M 108.941406 40.125 C 110.128906 40.5 110.503906 41.25 110.066406 42.375 C 109.289062 41.816406 108.914062 41.066406 108.941406 40.125 Z M 108.941406 40.125 "/>
</g>
<mask id="mask8">
  <g filter="url(#alpha)">
<rect x="0" y="0" width="149" height="51" style="fill:rgb(0%,0%,0%);fill-opacity:0.819608;stroke:none;"/>
  </g>
</mask>
<clipPath id="clip9">
  <rect x="0" y="0" width="149" height="51"/>
</clipPath>
<g id="surface29" clip-path="url(#clip9)">
<path style=" stroke:none;fill-rule:evenodd;fill:rgb(99.607843%,100%,99.607843%);fill-opacity:1;" d="M 120.921875 30.375 C 122.882812 30.171875 124.753906 30.421875 126.539062 31.125 C 127.492188 33.523438 127.617188 36.023438 126.910156 38.625 C 125.148438 38.503906 123.402344 38.628906 121.671875 39 C 120.882812 40.039062 120.757812 41.164062 121.296875 42.375 C 121.800781 39.726562 123.421875 38.726562 126.164062 39.375 C 126.371094 43.296875 124.5 45.546875 120.546875 46.125 C 119.0625 45.757812 117.816406 45.007812 116.804688 43.875 C 116.582031 39.710938 117.332031 35.710938 119.050781 31.875 C 119.796875 31.449219 120.417969 30.949219 120.921875 30.375 Z M 120.921875 30.375 "/>
</g>
<mask id="mask9">
  <g filter="url(#alpha)">
<rect x="0" y="0" width="149" height="51" style="fill:rgb(0%,0%,0%);fill-opacity:0.823529;stroke:none;"/>
  </g>
</mask>
<clipPath id="clip10">
  <rect x="0" y="0" width="149" height="51"/>
</clipPath>
<g id="surface32" clip-path="url(#clip10)">
<path style=" stroke:none;fill-rule:evenodd;fill:rgb(99.607843%,100%,99.607843%);fill-opacity:1;" d="M 132.152344 30.375 C 134.539062 30.015625 136.660156 30.515625 138.519531 31.875 C 138.558594 36.394531 138.183594 40.894531 137.394531 45.375 C 135.109375 45.273438 132.863281 45.523438 130.65625 46.125 C 127.453125 44.746094 126.828125 42.496094 128.785156 39.375 C 130.078125 37.789062 131.703125 36.664062 133.652344 36 C 132.09375 35.855469 130.597656 35.480469 129.160156 34.875 C 129.882812 33.15625 130.878906 31.65625 132.152344 30.375 Z M 132.902344 40.125 C 133.808594 40.871094 133.683594 41.621094 132.527344 42.375 C 132.175781 41.566406 132.300781 40.816406 132.902344 40.125 Z M 132.902344 40.125 "/>
</g>
</defs>
<g id="surface1">
<use xlink:href="#surface5" mask="url(#mask0)"/>
<use xlink:href="#surface8" mask="url(#mask1)"/>
<use xlink:href="#surface11" mask="url(#mask2)"/>
<use xlink:href="#surface14" mask="url(#mask3)"/>
<use xlink:href="#surface17" mask="url(#mask4)"/>
<use xlink:href="#surface20" mask="url(#mask5)"/>
<use xlink:href="#surface23" mask="url(#mask6)"/>
<use xlink:href="#surface26" mask="url(#mask7)"/>
<use xlink:href="#surface29" mask="url(#mask8)"/>
<use xlink:href="#surface32" mask="url(#mask9)"/>
</g>
</svg>
