<?xml version="1.0" encoding="UTF-8"?>
<!DOCTYPE svg PUBLIC "-//W3C//DTD SVG 1.1//EN" "http://www.w3.org/Graphics/SVG/1.1/DTD/svg11.dtd">
<svg xmlns="http://www.w3.org/2000/svg" version="1.1" width="199px" height="68px" style="shape-rendering:geometricPrecision; text-rendering:geometricPrecision; image-rendering:optimizeQuality; fill-rule:evenodd; clip-rule:evenodd" xmlns:xlink="http://www.w3.org/1999/xlink">
<g><path style="opacity:0.767" fill="#fefffe" d="M 13.5,-0.5 C 24.8333,-0.5 36.1667,-0.5 47.5,-0.5C 49.8598,1.99035 50.8598,4.99035 50.5,8.5C 49.7096,15.4789 49.3763,22.4789 49.5,29.5C 51.9032,29.393 53.7365,30.393 55,32.5C 56.6667,35.1667 58.3333,37.8333 60,40.5C 60.4329,47.9121 59.7662,55.2454 58,62.5C 54.8708,63.1298 51.7041,63.7964 48.5,64.5C 47.8075,65.5178 47.1408,66.5178 46.5,67.5C 35.5,67.5 24.5,67.5 13.5,67.5C 12.8592,66.5178 12.1925,65.5178 11.5,64.5C 8.29585,63.7964 5.12919,63.1298 2,62.5C 1.47227,58.3007 0.63894,54.3007 -0.5,50.5C -0.5,47.1667 -0.5,43.8333 -0.5,40.5C 1.55755,38.0734 3.39089,35.4068 5,32.5C 6.26351,30.393 8.09685,29.393 10.5,29.5C 10.7265,22.1372 10.3932,14.8038 9.5,7.5C 9.52848,4.02351 10.8618,1.35684 13.5,-0.5 Z M 15.5,2.5 C 25.7491,2.18055 35.9158,2.51389 46,3.5C 46.5,4.5 47,5.5 47.5,6.5C 46.4497,17.1172 45.7831,27.7839 45.5,38.5C 35.1667,38.5 24.8333,38.5 14.5,38.5C 13.7462,27.1725 13.5795,15.8391 14,4.5C 14.7172,3.9558 15.2172,3.28913 15.5,2.5 Z M 9.5,32.5 C 10.0431,32.56 10.3764,32.8933 10.5,33.5C 9.33333,35.8333 8.16667,38.1667 7,40.5C 6.30762,39.9747 5.80762,39.3081 5.5,38.5C 6.84355,36.4714 8.17688,34.4714 9.5,32.5 Z M 49.5,32.5 C 51.6243,34.0592 53.291,36.0592 54.5,38.5C 54.1924,39.3081 53.6924,39.9747 53,40.5C 51.5462,37.9289 50.3795,35.2622 49.5,32.5 Z M 14.5,41.5 C 24.8548,41.1681 35.1881,41.5014 45.5,42.5C 46.9094,45.7268 47.9094,49.0601 48.5,52.5C 36.1667,52.5 23.8333,52.5 11.5,52.5C 12.2967,48.7768 13.2967,45.1101 14.5,41.5 Z M 3.5,42.5 C 4.11742,42.6107 4.61742,42.944 5,43.5C 5.66667,49.1667 5.66667,54.8333 5,60.5C 3.48497,54.4676 2.98497,48.4676 3.5,42.5 Z M 55.5,42.5 C 56.9468,43.1342 57.6134,44.3009 57.5,46C 56.6127,50.8237 55.7794,55.6571 55,60.5C 54.2124,54.418 54.379,48.418 55.5,42.5 Z M 9.5,55.5 C 23.1667,55.5 36.8333,55.5 50.5,55.5C 50.5,57.1667 50.5,58.8333 50.5,60.5C 36.8333,60.5 23.1667,60.5 9.5,60.5C 9.5,58.8333 9.5,57.1667 9.5,55.5 Z"/></g>
<g><path style="opacity:0.689" fill="#fefffe" d="M 29.5,7.5 C 32.3648,10.1899 34.5315,13.5233 36,17.5C 36.6667,18.5 36.6667,19.5 36,20.5C 33.8526,21.1125 31.686,21.7792 29.5,22.5C 30.5443,24.7676 30.711,27.1009 30,29.5C 27.5791,25.6597 25.4125,21.6597 23.5,17.5C 25.7427,16.5258 28.076,16.1924 30.5,16.5C 30.2962,13.4824 29.9629,10.4824 29.5,7.5 Z"/></g>
<g><path style="opacity:0.849" fill="#fefffe" d="M 93.5,33.5 C 95.5,33.5 97.5,33.5 99.5,33.5C 98.1098,42.1739 96.6098,50.8406 95,59.5C 93.3005,60.4061 91.4672,60.7394 89.5,60.5C 90.7245,51.4861 92.0578,42.4861 93.5,33.5 Z"/></g>
<g><path style="opacity:0.829" fill="#fefffe" d="M 133.5,34.5 C 135.5,34.5 137.5,34.5 139.5,34.5C 139.739,36.4672 139.406,38.3005 138.5,40C 140.107,41.049 140.773,42.549 140.5,44.5C 139.5,44.5 138.5,44.5 137.5,44.5C 137.495,47.5318 137.162,50.5318 136.5,53.5C 137.656,55.7712 138.156,58.1046 138,60.5C 135.408,61.9817 133.075,61.6483 131,59.5C 130.258,54.5117 130.758,49.6783 132.5,45C 130.344,43.3058 130.511,41.4725 133,39.5C 133.494,37.8659 133.66,36.1992 133.5,34.5 Z"/></g>
<g><path style="opacity:0.829" fill="#fefffe" d="M 198.5,40.5 C 198.5,41.8333 198.5,43.1667 198.5,44.5C 197.5,44.5 196.5,44.5 195.5,44.5C 195.495,47.5318 195.162,50.5318 194.5,53.5C 195.656,55.7712 196.156,58.1046 196,60.5C 193.408,61.9817 191.075,61.6483 189,59.5C 188.258,54.5117 188.758,49.6783 190.5,45C 188.344,43.3058 188.511,41.4725 191,39.5C 191.494,37.8659 191.66,36.1992 191.5,34.5C 193.5,34.5 195.5,34.5 197.5,34.5C 197.739,36.4672 197.406,38.3005 196.5,40C 197.094,40.4643 197.761,40.631 198.5,40.5 Z"/></g>
<g><path style="opacity:0.823" fill="#fefffe" d="M 104.5,40.5 C 107.685,40.0196 110.519,40.6863 113,42.5C 113.053,48.5249 112.553,54.5249 111.5,60.5C 108.449,60.3645 105.449,60.6978 102.5,61.5C 98.2221,59.6605 97.3887,56.6605 100,52.5C 101.731,50.3834 103.898,48.8834 106.5,48C 104.423,47.8078 102.423,47.3078 100.5,46.5C 101.467,44.2099 102.8,42.2099 104.5,40.5 Z M 105.5,53.5 C 106.713,54.4971 106.546,55.4971 105,56.5C 104.53,55.4232 104.697,54.4232 105.5,53.5 Z"/></g>
<g><path style="opacity:0.798" fill="#fefffe" d="M 119.5,53.5 C 114.592,49.2393 114.592,45.0726 119.5,41C 122.669,40.0218 125.503,40.5218 128,42.5C 128.986,44.9248 128.319,46.5915 126,47.5C 124.607,46.3849 123.107,45.8849 121.5,46C 129.933,52.3605 129.433,57.5272 120,61.5C 113.34,58.652 113.173,55.9854 119.5,53.5 Z M 119.5,53.5 C 121.085,54.0024 121.585,55.0024 121,56.5C 119.961,55.7562 119.461,54.7562 119.5,53.5 Z"/></g>
<g><path style="opacity:0.798" fill="#fefffe" d="M 145.5,53.5 C 140.592,49.2393 140.592,45.0726 145.5,41C 148.669,40.0218 151.503,40.5218 154,42.5C 154.986,44.9248 154.319,46.5915 152,47.5C 150.607,46.3849 149.107,45.8849 147.5,46C 155.933,52.3605 155.433,57.5272 146,61.5C 139.34,58.652 139.173,55.9854 145.5,53.5 Z M 145.5,53.5 C 147.085,54.0024 147.585,55.0024 147,56.5C 145.961,55.7562 145.461,54.7562 145.5,53.5 Z"/></g>
<g><path style="opacity:0.82" fill="#fefffe" d="M 161.5,40.5 C 164.119,40.2317 166.619,40.565 169,41.5C 170.275,44.6995 170.441,48.0328 169.5,51.5C 167.143,51.3367 164.81,51.5034 162.5,52C 161.446,53.3876 161.28,54.8876 162,56.5C 162.672,52.9704 164.838,51.6371 168.5,52.5C 168.78,57.7266 166.28,60.7266 161,61.5C 159.018,61.0097 157.351,60.0097 156,58.5C 155.704,52.9475 156.704,47.6141 159,42.5C 159.995,41.9341 160.828,41.2674 161.5,40.5 Z"/></g>
<g><path style="opacity:0.823" fill="#fefffe" d="M 176.5,40.5 C 179.685,40.0196 182.519,40.6863 185,42.5C 185.053,48.5249 184.553,54.5249 183.5,60.5C 180.449,60.3645 177.449,60.6978 174.5,61.5C 170.222,59.6605 169.389,56.6605 172,52.5C 173.731,50.3834 175.898,48.8834 178.5,48C 176.423,47.8078 174.423,47.3078 172.5,46.5C 173.467,44.2099 174.8,42.2099 176.5,40.5 Z M 177.5,53.5 C 178.713,54.4971 178.546,55.4971 177,56.5C 176.53,55.4232 176.697,54.4232 177.5,53.5 Z"/></g>
</svg>
