<?xml version="1.0" standalone="no"?>
<!DOCTYPE svg PUBLIC "-//W3C//DTD SVG 1.0//EN" "http://www.w3.org/TR/2001/REC-SVG-20010904/DTD/svg10.dtd">
<svg xmlns="http://www.w3.org/2000/svg" xmlns:xlink="http://www.w3.org/1999/xlink" id="body_1" width="15" height="16">

<g transform="matrix(0.090361446 0 0 0.08938547 0 0)">
	<g>
        <path d="M-0.5 -0.5C 54.8333 -0.5 110.167 -0.5 165.5 -0.5C 165.5 46.5 165.5 93.5 165.5 140.5C 164.662 140.842 164.328 141.508 164.5 142.5C 163.662 142.842 163.328 143.508 163.5 144.5C 162.833 144.5 162.5 144.833 162.5 145.5C 161.094 145.973 160.427 146.973 160.5 148.5C 159.833 148.5 159.5 148.833 159.5 149.5C 157.973 149.427 156.973 150.094 156.5 151.5C 154.973 151.427 153.973 152.094 153.5 153.5C 150.458 153.733 147.792 154.733 145.5 156.5C 144.209 156.263 143.209 156.596 142.5 157.5C 140.447 157.402 138.78 158.069 137.5 159.5C 136.209 159.263 135.209 159.596 134.5 160.5C 133.209 160.263 132.209 160.596 131.5 161.5C 129.447 161.402 127.78 162.069 126.5 163.5C 125.209 163.263 124.209 163.596 123.5 164.5C 121.447 164.402 119.78 165.069 118.5 166.5C 117.209 166.263 116.209 166.596 115.5 167.5C 114.209 167.263 113.209 167.596 112.5 168.5C 110.447 168.402 108.78 169.069 107.5 170.5C 106.209 170.263 105.209 170.596 104.5 171.5C 102.447 171.402 100.78 172.069 99.5 173.5C 98.209 173.263 97.209 173.596 96.5 174.5C 95.209 174.263 94.209 174.596 93.5 175.5C 91.4471 175.402 89.7804 176.069 88.5 177.5C 87.209 177.263 86.209 177.596 85.5 178.5C 83.5 178.5 81.5 178.5 79.5 178.5C 78.791 177.596 77.791 177.263 76.5 177.5C 75.2196 176.069 73.5529 175.402 71.5 175.5C 70.791 174.596 69.791 174.263 68.5 174.5C 67.2196 173.069 65.5529 172.402 63.5 172.5C 62.791 171.596 61.791 171.263 60.5 171.5C 59.791 170.596 58.791 170.263 57.5 170.5C 56.2196 169.069 54.5529 168.402 52.5 168.5C 51.791 167.596 50.791 167.263 49.5 167.5C 48.791 166.596 47.791 166.263 46.5 166.5C 46.1583 165.662 45.4916 165.328 44.5 165.5C 43.791 164.596 42.791 164.263 41.5 164.5C 40.791 163.596 39.791 163.263 38.5 163.5C 37.2196 162.069 35.5529 161.402 33.5 161.5C 32.791 160.596 31.791 160.263 30.5 160.5C 29.791 159.596 28.791 159.263 27.5 159.5C 27.1583 158.662 26.4916 158.328 25.5 158.5C 24.791 157.596 23.791 157.263 22.5 157.5C 21.791 156.596 20.791 156.263 19.5 156.5C 18.2196 155.069 16.5529 154.402 14.5 154.5C 13.791 153.596 12.791 153.263 11.5 153.5C 11.0269 152.094 10.0269 151.427 8.5 151.5C 8.02694 150.094 7.02694 149.427 5.5 149.5C 4.97439 147.77 3.97439 146.436 2.5 145.5C 1.73685 143.632 0.736849 141.965 -0.5 140.5C -0.5 93.5 -0.5 46.5 -0.5 -0.5z" stroke="none" fill="#FBE9EB" fill-rule="nonzero" fill-opacity="0.9529412" />
	</g>
	<g>
        <path d="M164.5 142.5C 164.833 142.5 165.167 142.5 165.5 142.5C 165.5 143.167 165.5 143.833 165.5 144.5C 165.167 144.5 164.833 144.5 164.5 144.5C 164.5 143.833 164.5 143.167 164.5 142.5z" stroke="none" fill="#FDFEFD" fill-rule="nonzero" fill-opacity="0.007843138" />
	</g>
	<g>
        <path d="M163.5 144.5C 163.833 144.5 164.167 144.5 164.5 144.5C 164.315 145.17 163.981 145.17 163.5 144.5z" stroke="none" fill="#FDFEFD" fill-rule="nonzero" fill-opacity="0.011764706" />
	</g>
	<g>
        <path d="M2.5 145.5C 1.83333 146.167 1.83333 146.167 2.5 145.5z" stroke="none" fill="#FDFEFD" fill-rule="nonzero" fill-opacity="0.011764706" />
	</g>
	<g>
        <path d="M162.5 145.5C 162.833 145.5 163.167 145.5 163.5 145.5C 163.315 146.17 162.981 146.17 162.5 145.5z" stroke="none" fill="#FDFEFD" fill-rule="nonzero" fill-opacity="0.011764706" />
	</g>
	<g>
        <path d="M2.5 147.5C 3.83333 148.167 3.83333 148.167 2.5 147.5z" stroke="none" fill="#FDFEFD" fill-rule="nonzero" fill-opacity="0.007843138" />
	</g>
	<g>
        <path d="M161.5 147.5C 162.833 148.167 162.833 148.167 161.5 147.5z" stroke="none" fill="#FDFEFD" fill-rule="nonzero" fill-opacity="0.007843138" />
	</g>
	<g>
        <path d="M160.5 148.5C 160.833 148.5 161.167 148.5 161.5 148.5C 161.315 149.17 160.981 149.17 160.5 148.5z" stroke="none" fill="#FDFEFD" fill-rule="nonzero" fill-opacity="0.007843138" />
	</g>
	<g>
        <path d="M5.5 149.5C 5.5 149.833 5.5 150.167 5.5 150.5C 4.82986 150.019 4.82986 149.685 5.5 149.5z" stroke="none" fill="#FDFEFD" fill-rule="nonzero" fill-opacity="0.007843138" />
	</g>
	<g>
        <path d="M159.5 149.5C 159.833 149.5 160.167 149.5 160.5 149.5C 160.315 150.17 159.981 150.17 159.5 149.5z" stroke="none" fill="#FDFEFD" fill-rule="nonzero" fill-opacity="0.007843138" />
	</g>
	<g>
        <path d="M5.5 150.5C 6.83333 151.167 6.83333 151.167 5.5 150.5z" stroke="none" fill="#FDFEFD" fill-rule="nonzero" fill-opacity="0.007843138" />
	</g>
	<g>
        <path d="M159.5 150.5C 158.833 151.167 158.833 151.167 159.5 150.5z" stroke="none" fill="#FDFEFD" fill-rule="nonzero" fill-opacity="0.007843138" />
	</g>
	<g>
        <path d="M8.5 151.5C 8.5 151.833 8.5 152.167 8.5 152.5C 7.82986 152.019 7.82986 151.685 8.5 151.5z" stroke="none" fill="#FDFEFD" fill-rule="nonzero" fill-opacity="0.007843138" />
	</g>
	<g>
        <path d="M156.5 151.5C 157.833 152.167 157.833 152.167 156.5 151.5z" stroke="none" fill="#FDFCFB" fill-rule="nonzero" fill-opacity="0.007843138" />
	</g>
	<g>
        <path d="M8.5 152.5C 9.83333 153.167 9.83333 153.167 8.5 152.5z" stroke="none" fill="#FDFEFD" fill-rule="nonzero" fill-opacity="0.007843138" />
	</g>
	<g>
        <path d="M156.5 152.5C 155.833 153.167 155.833 153.167 156.5 152.5z" stroke="none" fill="#FDFEFD" fill-rule="nonzero" fill-opacity="0.007843138" />
	</g>
	<g>
        <path d="M11.5 153.5C 10.8333 154.167 10.8333 154.167 11.5 153.5z" stroke="none" fill="#FDFEFD" fill-rule="nonzero" fill-opacity="0.007843138" />
	</g>
	<g>
        <path d="M153.5 153.5C 154.833 154.167 154.833 154.167 153.5 153.5z" stroke="none" fill="#FDFEFD" fill-rule="nonzero" fill-opacity="0.007843138" />
	</g>
	<g>
        <path d="M14.5 154.5C 14.1034 155.525 13.4368 155.692 12.5 155C 13.0944 154.536 13.7611 154.369 14.5 154.5z" stroke="none" fill="#FDFEFD" fill-rule="nonzero" fill-opacity="0.007843138" />
	</g>
	<g>
        <path d="M151.5 154.5C 152.833 155.167 152.833 155.167 151.5 154.5z" stroke="none" fill="#FDFEFD" fill-rule="nonzero" fill-opacity="0.007843138" />
	</g>
	<g>
        <path d="M15.5 155.5C 16.8333 156.167 16.8333 156.167 15.5 155.5z" stroke="none" fill="#FDFEFD" fill-rule="nonzero" fill-opacity="0.007843138" />
	</g>
	<g>
        <path d="M148.5 156.5C 148.897 155.475 149.563 155.308 150.5 156C 149.906 156.464 149.239 156.631 148.5 156.5z" stroke="none" fill="#FDFFFE" fill-rule="nonzero" fill-opacity="0.007843138" />
	</g>
	<g>
        <path d="M19.5 156.5C 19.1034 157.525 18.4368 157.692 17.5 157C 18.0944 156.536 18.7611 156.369 19.5 156.5z" stroke="none" fill="#FDFEFD" fill-rule="nonzero" fill-opacity="0.007843138" />
	</g>
	<g>
        <path d="M145.5 156.5C 146.239 156.369 146.906 156.536 147.5 157C 146.563 157.692 145.897 157.525 145.5 156.5z" stroke="none" fill="#FDFEFD" fill-rule="nonzero" fill-opacity="0.007843138" />
	</g>
	<g>
        <path d="M22.5 157.5C 22.1034 158.525 21.4368 158.692 20.5 158C 21.0944 157.536 21.7611 157.369 22.5 157.5z" stroke="none" fill="#FDFEFD" fill-rule="nonzero" fill-opacity="0.007843138" />
	</g>
	<g>
        <path d="M142.5 158.5C 142.5 158.167 142.5 157.833 142.5 157.5C 145.167 157.833 145.167 158.167 142.5 158.5z" stroke="none" fill="#FEFCFE" fill-rule="nonzero" fill-opacity="0.007843138" />
	</g>
	<g>
        <path d="M25.5 158.5C 25.1034 159.525 24.4368 159.692 23.5 159C 24.0944 158.536 24.7611 158.369 25.5 158.5z" stroke="none" fill="#FDFEFD" fill-rule="nonzero" fill-opacity="0.007843138" />
	</g>
	<g>
        <path d="M142.5 158.5C 142.103 159.525 141.437 159.692 140.5 159C 141.094 158.536 141.761 158.369 142.5 158.5z" stroke="none" fill="#FDFEFD" fill-rule="nonzero" fill-opacity="0.007843138" />
	</g>
	<g>
        <path d="M27.5 159.5C 26.8333 160.167 26.8333 160.167 27.5 159.5z" stroke="none" fill="#FDFEFD" fill-rule="nonzero" fill-opacity="0.007843138" />
	</g>
	<g>
        <path d="M1.5 1.5C 55.5 1.5 109.5 1.5 163.5 1.5C 163.985 47.8933 163.485 94.2267 162 140.5C 159.833 145.333 156.333 148.833 151.5 151C 128.384 159.205 105.384 167.705 82.5 176.5C 57.6037 167.481 32.9371 157.981 8.5 148C 5.89408 146.062 4.06075 143.562 3 140.5C 1.51498 94.2267 1.01498 47.8933 1.5 1.5z" stroke="none" fill="#BF122B" fill-rule="nonzero" fill-opacity="0.99607843" />
	</g>
	<g>
        <path d="M5.5 6.5C 56.8333 6.5 108.167 6.5 159.5 6.5C 159.984 50.227 159.484 93.8937 158 137.5C 156.558 141.275 154.058 144.108 150.5 146C 127.921 154.458 105.254 162.625 82.5 170.5C 58.9213 162.696 35.588 154.196 12.5 145C 9.89408 143.062 8.06075 140.562 7 137.5C 5.51592 93.8937 5.01592 50.227 5.5 6.5z" stroke="none" fill="#FBF6F8" fill-rule="nonzero" />
	</g>
	<g>
        <path d="M83.5 128.5C 89.0198 136.531 95.5198 143.864 103 150.5C 103.043 154.731 105.21 156.564 109.5 156C 100.392 158.869 91.3923 162.036 82.5 165.5C 69.9831 161.218 57.6497 156.551 45.5 151.5C 46.9401 147.409 49.6068 144.576 53.5 143C 61.4915 142.231 69.4915 141.565 77.5 141C 80.4414 137.284 82.4414 133.117 83.5 128.5z" stroke="none" fill="#062E84" fill-rule="nonzero" />
	</g>
	<g>
        <path d="M91.5 79.5C 94.9828 78.9159 97.9828 79.7492 100.5 82C 96.578 83.6472 92.578 84.6472 88.5 85C 86.5 83.6667 84.5 82.3333 82.5 81C 85.6946 80.8195 88.6946 80.3195 91.5 79.5z" stroke="none" fill="#122B7B" fill-rule="nonzero" />
	</g>
	<g>
        <path d="M153.5 132.5C 153.5 132.833 153.5 133.167 153.5 133.5C 152.502 110.006 152.169 86.3392 152.5 62.5C 128.498 62.3334 104.498 62.5 80.5 63C 81.7383 63.69 81.7383 64.19 80.5 64.5C 79.6618 64.1583 79.3284 63.4916 79.5 62.5C 103.994 61.5023 128.661 61.169 153.5 61.5C 153.5 85.1667 153.5 108.833 153.5 132.5z" stroke="none" fill="#00126B" fill-rule="nonzero" />
	</g>
	<g>
        <path d="M153.5 133.5C 152.866 136.643 151.2 139.143 148.5 141C 139.833 144.333 131.167 147.667 122.5 151C 117.196 151.68 112.196 150.68 107.5 148C 100.77 140.279 96.2701 131.446 94 121.5C 92.0856 116.665 89.4189 112.331 86 108.5C 85.3833 103.533 84.2167 98.7001 82.5 94C 82.6301 92.9412 83.1301 92.1079 84 91.5C 85.0852 92.2931 86.2519 92.9598 87.5 93.5C 95.2974 90.3521 102.297 86.0187 108.5 80.5C 110.833 80.1667 113.167 79.8333 115.5 79.5C 126.441 81.0637 137.441 81.7304 148.5 81.5C 148.5 80.1667 148.5 78.8333 148.5 77.5C 137.15 77.3101 125.817 77.6434 114.5 78.5C 105.309 77.0048 95.9757 75.8382 86.5 75C 83.9682 74.3811 81.6349 73.3811 79.5 72C 80.7111 70.8869 80.7111 69.7202 79.5 68.5C 80.5 67.8333 81.5 67.1667 82.5 66.5C 81.7573 65.8182 81.0906 65.1515 80.5 64.5C 81.7383 64.19 81.7383 63.69 80.5 63C 104.498 62.5 128.498 62.3334 152.5 62.5C 152.169 86.3392 152.502 110.006 153.5 133.5z" stroke="none" fill="#043086" fill-rule="nonzero" />
	</g>
	<g>
        <path d="M65.5 68.5C 66.4778 68.811 67.1445 69.4777 67.5 70.5C 62.6467 72.5357 60.6467 76.2024 61.5 81.5C 61.618 89.0497 63.2847 96.2164 66.5 103C 65.5026 107.138 65.336 111.304 66 115.5C 67.8658 120.565 69.3658 125.732 70.5 131C 63.7138 133.605 56.8805 136.439 50 139.5C 47.2305 138.652 44.3971 138.319 41.5 138.5C 41.9239 142.703 41.4239 146.703 40 150.5C 32.1251 147.481 24.2918 144.314 16.5 141C 13.8002 139.143 12.1335 136.643 11.5 133.5C 12.4976 110.006 12.8309 86.3392 12.5 62.5C 29.8333 62.5 47.1667 62.5 64.5 62.5C 64.2053 64.7354 64.5386 66.7354 65.5 68.5z" stroke="none" fill="#012F86" fill-rule="nonzero" />
	</g>
	<g>
        <path d="M66.5 61.5C 65.6314 63.717 65.298 66.0504 65.5 68.5C 64.5386 66.7354 64.2053 64.7354 64.5 62.5C 47.1667 62.5 29.8333 62.5 12.5 62.5C 12.8309 86.3392 12.4976 110.006 11.5 133.5C 11.5 133.167 11.5 132.833 11.5 132.5C 11.5 108.833 11.5 85.1667 11.5 61.5C 29.8333 61.5 48.1667 61.5 66.5 61.5z" stroke="none" fill="#01126A" fill-rule="nonzero" />
	</g>
	<g>
        <path d="M66.5 61.5C 48.1667 61.5 29.8333 61.5 11.5 61.5C 11.5 85.1667 11.5 108.833 11.5 132.5C 10.5024 108.672 10.1691 84.6725 10.5 60.5C 29.3408 60.1698 48.0075 60.5031 66.5 61.5z" stroke="none" fill="#6F87B7" fill-rule="nonzero" />
	</g>
	<g>
        <path d="M153.5 132.5C 153.5 108.833 153.5 85.1667 153.5 61.5C 128.661 61.169 103.994 61.5023 79.5 62.5C 78.9569 62.44 78.6236 62.1067 78.5 61.5C 103.825 60.5002 129.158 60.1669 154.5 60.5C 154.831 84.6725 154.498 108.672 153.5 132.5z" stroke="none" fill="#5D75AB" fill-rule="nonzero" />
	</g>
	<g>
        <path d="M39.5 49.5C 43.1667 49.5 46.8333 49.5 50.5 49.5C 50.6427 51.2624 50.3094 52.9291 49.5 54.5C 44.2079 55.4948 38.8746 55.8282 33.5 55.5C 33.5 45.8333 33.5 36.1667 33.5 26.5C 35.1667 26.5 36.8333 26.5 38.5 26.5C 38.1746 34.3516 38.508 42.0182 39.5 49.5z" stroke="none" fill="#C30D2A" fill-rule="nonzero" />
	</g>
	<g>
        <path d="M147.5 35.5C 147.5 34.1667 147.5 32.8333 147.5 31.5C 145.585 31.2155 143.919 31.5489 142.5 32.5C 142.238 33.9778 142.571 35.3112 143.5 36.5C 147.03 37.5147 150.197 39.1814 153 41.5C 153.799 46.0868 153.632 50.5868 152.5 55C 147.5 55.6667 142.5 55.6667 137.5 55C 135.381 52.7815 135.048 50.2815 136.5 47.5C 138.409 46.6518 140.409 46.3184 142.5 46.5C 142.5 47.5 142.5 48.5 142.5 49.5C 144.167 49.5 145.833 49.5 147.5 49.5C 147.785 47.712 147.452 46.0453 146.5 44.5C 142.493 43.3361 138.993 41.3361 136 38.5C 134.043 26.1472 139.21 21.9806 151.5 26C 153.314 28.4815 153.98 31.3148 153.5 34.5C 151.379 34.3253 149.379 34.6586 147.5 35.5z" stroke="none" fill="#C41E31" fill-rule="nonzero" />
	</g>
	<g>
        <path d="M71.5 25.5C 73.924 25.1924 76.2573 25.5258 78.5 26.5C 79.7653 29.7957 80.9319 33.129 82 36.5C 83.6906 33.0991 85.1906 29.5991 86.5 26C 88.9018 25.1859 91.2351 25.3526 93.5 26.5C 88.3698 35.5478 85.7031 45.2145 85.5 55.5C 83.5 55.5 81.5 55.5 79.5 55.5C 79.665 52.1501 79.4983 48.8168 79 45.5C 76.1983 38.926 73.6983 32.2593 71.5 25.5z" stroke="none" fill="#C21A2E" fill-rule="nonzero" />
	</g>
	<g>
        <path d="M142.5 32.5C 143.919 31.5489 145.585 31.2155 147.5 31.5C 147.5 32.8333 147.5 34.1667 147.5 35.5C 146.596 34.791 146.263 33.791 146.5 32.5C 145.167 32.5 143.833 32.5 142.5 32.5z" stroke="none" fill="#EC9FAB" fill-rule="nonzero" />
	</g>
	<g>
        <path d="M111.5 31.5C 108.713 32.4767 105.713 32.81 102.5 32.5C 102.5 34.1667 102.5 35.8333 102.5 37.5C 101.539 35.7354 101.205 33.7354 101.5 31.5C 104.833 31.5 108.167 31.5 111.5 31.5z" stroke="none" fill="#E593A1" fill-rule="nonzero" />
	</g>
	<g>
        <path d="M27.5 26.5C 28.4584 26.9528 29.2917 27.6195 30 28.5C 30.6667 34.1667 30.6667 39.8333 30 45.5C 29.5 46 29 46.5 28.5 47C 24.8484 47.4986 21.1817 47.6653 17.5 47.5C 17.5 50.1667 17.5 52.8333 17.5 55.5C 15.5 55.5 13.5 55.5 11.5 55.5C 11.5 45.8333 11.5 36.1667 11.5 26.5C 16.8333 26.5 22.1667 26.5 27.5 26.5z" stroke="none" fill="#C41A2E" fill-rule="nonzero" />
	</g>
	<g>
        <path d="M17.5 31.5C 19.5 31.5 21.5 31.5 23.5 31.5C 23.5 34.8333 23.5 38.1667 23.5 41.5C 21.5 41.5 19.5 41.5 17.5 41.5C 17.5 38.1667 17.5 34.8333 17.5 31.5z" stroke="none" fill="#FCF1F3" fill-rule="nonzero" />
	</g>
	<g>
        <path d="M114.5 25.5C 119.844 25.334 125.177 25.5006 130.5 26C 131.416 26.3742 132.25 26.8742 133 27.5C 133.667 33.5 133.667 39.5 133 45.5C 131.615 48.4145 131.782 51.4145 133.5 54.5C 131.257 55.4742 128.924 55.8076 126.5 55.5C 126.162 53.146 125.662 50.8127 125 48.5C 123.989 47.6634 122.822 47.33 121.5 47.5C 121.5 50.1667 121.5 52.8333 121.5 55.5C 119.167 55.5 116.833 55.5 114.5 55.5C 114.5 45.5 114.5 35.5 114.5 25.5z" stroke="none" fill="#C4182F" fill-rule="nonzero" />
	</g>
	<g>
        <path d="M126.5 41.5C 126.5 38.5 126.5 35.5 126.5 32.5C 124.833 32.5 123.167 32.5 121.5 32.5C 121.5 35.5 121.5 38.5 121.5 41.5C 120.521 38.3752 120.187 35.0419 120.5 31.5C 122.833 31.5 125.167 31.5 127.5 31.5C 127.813 35.0419 127.479 38.3752 126.5 41.5z" stroke="none" fill="#D35E71" fill-rule="nonzero" />
	</g>
	<g>
        <path d="M126.5 41.5C 124.833 41.5 123.167 41.5 121.5 41.5C 121.5 38.5 121.5 35.5 121.5 32.5C 123.167 32.5 124.833 32.5 126.5 32.5C 126.5 35.5 126.5 38.5 126.5 41.5z" stroke="none" fill="#FEFBFC" fill-rule="nonzero" />
	</g>
	<g>
        <path d="M111.5 31.5C 108.167 31.5 104.833 31.5 101.5 31.5C 101.205 33.7354 101.539 35.7354 102.5 37.5C 104.924 37.1924 107.257 37.5258 109.5 38.5C 108.691 40.0709 108.357 41.7376 108.5 43.5C 106.5 43.5 104.5 43.5 102.5 43.5C 102.5 45.5 102.5 47.5 102.5 49.5C 105.5 49.5 108.5 49.5 111.5 49.5C 111.5 51.5 111.5 53.5 111.5 55.5C 106.167 55.5 100.833 55.5 95.5 55.5C 95.5 45.5 95.5 35.5 95.5 25.5C 100.833 25.5 106.167 25.5 111.5 25.5C 111.5 27.5 111.5 29.5 111.5 31.5z" stroke="none" fill="#C2182D" fill-rule="nonzero" />
	</g>
	<g>
        <path d="M58.5 25.5C 61.8333 25.5 65.1667 25.5 68.5 25.5C 70.6833 35.4162 72.35 45.4162 73.5 55.5C 71.5 55.5 69.5 55.5 67.5 55.5C 67.1667 53.5 66.8333 51.5 66.5 49.5C 64.1667 49.5 61.8333 49.5 59.5 49.5C 59.5 51.5 59.5 53.5 59.5 55.5C 57.1667 55.5 54.8333 55.5 52.5 55.5C 53.8732 45.346 55.8732 35.346 58.5 25.5z" stroke="none" fill="#C41F32" fill-rule="nonzero" />
	</g>
	<g>
        <path d="M62.5 32.5C 63.1174 32.6107 63.6174 32.944 64 33.5C 64.2565 36.557 64.7565 39.557 65.5 42.5C 64.3112 43.4287 62.9778 43.762 61.5 43.5C 61.9422 39.8455 62.2756 36.1788 62.5 32.5z" stroke="none" fill="#FDEBEF" fill-rule="nonzero" />
	</g>
	<g>
        <path d="M39.5 49.5C 38.508 42.0182 38.1746 34.3516 38.5 26.5C 36.8333 26.5 35.1667 26.5 33.5 26.5C 33.5 36.1667 33.5 45.8333 33.5 55.5C 32.506 45.6806 32.1726 35.6806 32.5 25.5C 34.8333 25.5 37.1667 25.5 39.5 25.5C 39.5 33.5 39.5 41.5 39.5 49.5z" stroke="none" fill="#C54158" fill-rule="nonzero" />
	</g>
	<g>
        <path d="M27.5 26.5C 22.1667 26.5 16.8333 26.5 11.5 26.5C 11.5 36.1667 11.5 45.8333 11.5 55.5C 10.506 45.6806 10.1726 35.6806 10.5 25.5C 16.358 25.1778 22.0247 25.5111 27.5 26.5z" stroke="none" fill="#DC7A8A" fill-rule="nonzero" />
	</g>
	<g>
        <path d="M64.5 19.5C 65.1667 19.5 65.8333 19.5 66.5 19.5C 66.5 20.1667 66.5 20.8333 66.5 21.5C 63.9407 21.8016 61.6074 21.4682 59.5 20.5C 61.4147 20.7845 63.0813 20.4511 64.5 19.5z" stroke="none" fill="#E89EA9" fill-rule="nonzero" />
	</g>
	<g>
        <path d="M143.5 11.5C 143.5 14.1667 143.5 16.8333 143.5 19.5C 144.833 19.5 146.167 19.5 147.5 19.5C 145.735 20.4614 143.735 20.7947 141.5 20.5C 140.945 16.9878 141.612 13.9878 143.5 11.5z" stroke="none" fill="#B22628" fill-rule="nonzero" />
	</g>
	<g>
        <path d="M74.5 11.5C 76.1667 11.5 77.8333 11.5 79.5 11.5C 79.6198 14.2048 78.6198 14.8715 76.5 13.5C 75.1667 15.5 75.1667 17.5 76.5 19.5C 77.5896 18.6086 77.5896 17.6086 76.5 16.5C 77.325 15.6143 78.325 15.281 79.5 15.5C 79.5 17.1667 79.5 18.8333 79.5 20.5C 77.5 20.5 75.5 20.5 73.5 20.5C 73.2641 17.3915 73.5975 14.3915 74.5 11.5z" stroke="none" fill="#B11823" fill-rule="nonzero" />
	</g>
	<g>
        <path d="M29.5 11.5C 30.8333 11.5 32.1667 11.5 33.5 11.5C 33.6646 14.5184 33.498 17.5184 33 20.5C 28.4415 22.4392 26.9415 21.1059 28.5 16.5C 29.9481 20.257 30.9481 20.257 31.5 16.5C 31.0135 14.6958 30.3468 13.0291 29.5 11.5z" stroke="none" fill="#BF3E3F" fill-rule="nonzero" />
	</g>
	<g>
        <path d="M136.5 20.5C 135.508 20.6716 134.842 20.3382 134.5 19.5C 135.092 16.8728 135.425 14.2062 135.5 11.5C 136.833 11.5 138.167 11.5 139.5 11.5C 139.507 14.0379 139.841 16.5379 140.5 19C 140.085 22.1057 139.085 22.2724 137.5 19.5C 136.893 19.6236 136.56 19.9569 136.5 20.5z" stroke="none" fill="#BD2D36" fill-rule="nonzero" />
	</g>
	<g>
        <path d="M107.5 11.5C 108.822 11.33 109.989 11.6634 111 12.5C 112.057 15.5488 112.224 18.5488 111.5 21.5C 109.833 18.8333 108.167 18.8333 106.5 21.5C 106.167 21.1667 105.833 20.8333 105.5 20.5C 106.423 17.5534 107.089 14.5534 107.5 11.5z" stroke="none" fill="#C0373C" fill-rule="nonzero" />
	</g>
	<g>
        <path d="M66.5 21.5C 66.5 20.8333 66.5 20.1667 66.5 19.5C 66.5751 16.7938 66.9084 14.1272 67.5 11.5C 68.8333 11.5 70.1667 11.5 71.5 11.5C 72.4015 14.8717 72.4015 18.205 71.5 21.5C 70.8333 20.8333 70.1667 20.1667 69.5 19.5C 68.4822 20.1925 67.4822 20.8592 66.5 21.5z" stroke="none" fill="#BE3138" fill-rule="nonzero" />
	</g>
	<g>
        <path d="M132.5 12.5C 133.167 14.8333 133.833 17.1667 134.5 19.5C 134.842 20.3382 135.508 20.6716 136.5 20.5C 135.295 21.6857 133.961 21.6857 132.5 20.5C 132.5 17.8333 132.5 15.1667 132.5 12.5z" stroke="none" fill="#E493A0" fill-rule="nonzero" />
	</g>
	<g>
        <path d="M127.5 11.5C 129.415 11.2155 131.081 11.5489 132.5 12.5C 132.5 15.1667 132.5 17.8333 132.5 20.5C 130.833 20.5 129.167 20.5 127.5 20.5C 127.5 17.5 127.5 14.5 127.5 11.5z" stroke="none" fill="#B51B21" fill-rule="nonzero" />
	</g>
	<g>
        <path d="M128.5 16.5C 129.5 16.5 130.5 16.5 131.5 16.5C 131.5 17.5 131.5 18.5 131.5 19.5C 130.5 19.5 129.5 19.5 128.5 19.5C 128.5 18.5 128.5 17.5 128.5 16.5z" stroke="none" fill="#E37784" fill-rule="nonzero" />
	</g>
	<g>
        <path d="M88.5 11.5C 93.443 11.2876 94.1097 12.2876 90.5 14.5C 93.1667 15.8333 93.1667 17.1667 90.5 18.5C 91.376 19.2508 92.376 19.7508 93.5 20C 91.8659 20.4935 90.1992 20.6602 88.5 20.5C 88.5 17.5 88.5 14.5 88.5 11.5z" stroke="none" fill="#B4192A" fill-rule="nonzero" />
	</g>
	<g>
        <path d="M41.5 11.5C 43.5 11.5 45.5 11.5 47.5 11.5C 47.8174 14.5719 47.4841 17.5719 46.5 20.5C 44.9954 17.8694 44.3287 18.2027 44.5 21.5C 43.5 21.5 42.5 21.5 41.5 21.5C 41.5 18.1667 41.5 14.8333 41.5 11.5z" stroke="none" fill="#BB2935" fill-rule="nonzero" />
	</g>
	<g>
        <path d="M64.5 19.5C 63.0813 20.4511 61.4147 20.7845 59.5 20.5C 59.5 17.5 59.5 14.5 59.5 11.5C 64.443 11.2876 65.1097 12.2876 61.5 14.5C 64.1667 15.8333 64.1667 17.1667 61.5 18.5C 62.325 19.3857 63.325 19.719 64.5 19.5z" stroke="none" fill="#B10C24" fill-rule="nonzero" />
	</g>
	<g>
        <path d="M10.5 11.5C 13.0495 11.5608 14.5495 12.8941 15 15.5C 15.5831 13.9984 16.4164 12.6651 17.5 11.5C 18.8333 14.8333 18.8333 18.1667 17.5 21.5C 16.7492 20.624 16.2492 19.624 16 18.5C 15.3333 19.8333 14.6667 19.8333 14 18.5C 13.7165 20.8856 12.7165 21.5523 11 20.5C 10.502 17.5184 10.3354 14.5184 10.5 11.5z" stroke="none" fill="#C53F44" fill-rule="nonzero" />
	</g>
	<g>
        <path d="M54.5 11.5C 55.4682 13.6074 55.8016 15.9407 55.5 18.5C 56.791 18.2627 57.791 18.596 58.5 19.5C 57.1667 19.5 55.8333 19.5 54.5 19.5C 54.5 16.8333 54.5 14.1667 54.5 11.5z" stroke="none" fill="#D66A79" fill-rule="nonzero" />
	</g>
	<g>
        <path d="M43.5 13.5C 45.4646 13.9483 45.7979 14.9483 44.5 16.5C 43.6143 15.675 43.281 14.675 43.5 13.5z" stroke="none" fill="#F3BAC2" fill-rule="nonzero" />
	</g>
	<g>
        <path d="M34.5 11.5C 36.5 11.5 38.5 11.5 40.5 11.5C 40.5 14.8333 40.5 18.1667 40.5 21.5C 38.5 21.5 36.5 21.5 34.5 21.5C 34.5 18.1667 34.5 14.8333 34.5 11.5z" stroke="none" fill="#B21827" fill-rule="nonzero" />
	</g>
	<g>
        <path d="M36.5 13.5C 37.6935 13.9704 38.3601 14.9704 38.5 16.5C 38.1667 17.5 37.8333 18.5 37.5 19.5C 36.5344 17.604 36.2011 15.604 36.5 13.5z" stroke="none" fill="#FDEDF0" fill-rule="nonzero" />
	</g>
	<g>
        <path d="M148.5 11.5C 150.369 13.6353 151.036 16.3019 150.5 19.5C 151.675 19.281 152.675 19.6143 153.5 20.5C 151.955 21.4519 150.288 21.7852 148.5 21.5C 148.5 18.1667 148.5 14.8333 148.5 11.5z" stroke="none" fill="#B4242E" fill-rule="nonzero" />
	</g>
	<g>
        <path d="M143.5 11.5C 144.468 13.6074 144.802 15.9407 144.5 18.5C 145.791 18.2627 146.791 18.596 147.5 19.5C 146.167 19.5 144.833 19.5 143.5 19.5C 143.5 16.8333 143.5 14.1667 143.5 11.5z" stroke="none" fill="#E796A2" fill-rule="nonzero" />
	</g>
	<g>
        <path d="M127.5 11.5C 127.5 14.5 127.5 17.5 127.5 20.5C 129.167 20.5 130.833 20.5 132.5 20.5C 130.393 21.4682 128.059 21.8016 125.5 21.5C 124.993 20.1411 123.993 19.1411 122.5 18.5C 125.167 17.1667 125.167 15.8333 122.5 14.5C 123.325 13.6143 124.325 13.281 125.5 13.5C 126.167 12.8333 126.833 12.1667 127.5 11.5z" stroke="none" fill="#F5CBD0" fill-rule="nonzero" />
	</g>
	<g>
        <path d="M125.5 13.5C 124.325 13.281 123.325 13.6143 122.5 14.5C 125.167 15.8333 125.167 17.1667 122.5 18.5C 123.993 19.1411 124.993 20.1411 125.5 21.5C 123.833 21.5 122.167 21.5 120.5 21.5C 120.5 18.1667 120.5 14.8333 120.5 11.5C 122.781 11.0773 124.448 11.744 125.5 13.5z" stroke="none" fill="#B4212C" fill-rule="nonzero" />
	</g>
	<g>
        <path d="M113.5 11.5C 115.167 11.5 116.833 11.5 118.5 11.5C 118.649 12.552 118.483 13.552 118 14.5C 117.107 13.2888 116.274 13.2888 115.5 14.5C 116.325 15.3857 117.325 15.719 118.5 15.5C 118.5 17.5 118.5 19.5 118.5 21.5C 116.856 21.7135 115.356 21.3802 114 20.5C 113.312 19.6683 113.479 19.0016 114.5 18.5C 118.508 19.1081 118.508 18.4414 114.5 16.5C 113.548 14.9547 113.215 13.288 113.5 11.5z" stroke="none" fill="#B31B26" fill-rule="nonzero" />
	</g>
	<g>
        <path d="M98.5 11.5C 100.5 11.5 102.5 11.5 104.5 11.5C 104.5 14.8333 104.5 18.1667 104.5 21.5C 102.5 21.5 100.5 21.5 98.5 21.5C 98.5 18.1667 98.5 14.8333 98.5 11.5z" stroke="none" fill="#B71829" fill-rule="nonzero" />
	</g>
	<g>
        <path d="M100.5 17.5C 102.337 17.6395 102.67 18.3061 101.5 19.5C 100.702 19.0431 100.369 18.3764 100.5 17.5z" stroke="none" fill="#FAC3CB" fill-rule="nonzero" />
	</g>
	<g>
        <path d="M100.5 13.5C 102.337 13.6395 102.67 14.3061 101.5 15.5C 100.702 15.0431 100.369 14.3764 100.5 13.5z" stroke="none" fill="#FFEAEE" fill-rule="nonzero" />
	</g>
	<g>
        <path d="M80.5 11.5C 81.5 11.5 82.5 11.5 83.5 11.5C 83.5153 22.0854 84.1819 22.0854 85.5 11.5C 86.487 14.7683 86.8204 18.1016 86.5 21.5C 84.5328 21.7394 82.6995 21.4061 81 20.5C 80.502 17.5184 80.3354 14.5184 80.5 11.5z" stroke="none" fill="#C24645" fill-rule="nonzero" />
	</g>
	<g>
        <path d="M53.5 11.5C 53.8333 11.5 54.1667 11.5 54.5 11.5C 54.5 14.1667 54.5 16.8333 54.5 19.5C 55.8333 19.5 57.1667 19.5 58.5 19.5C 58.5 19.8333 58.5 20.1667 58.5 20.5C 56.8333 20.5 55.1667 20.5 53.5 20.5C 53.5 17.5 53.5 14.5 53.5 11.5z" stroke="none" fill="#A40004" fill-rule="nonzero" />
	</g>
	<g>
        <path d="M53.5 11.5C 53.5 14.5 53.5 17.5 53.5 20.5C 55.1667 20.5 56.8333 20.5 58.5 20.5C 56.7354 21.4614 54.7354 21.7947 52.5 21.5C 52.1872 17.9581 52.5206 14.6248 53.5 11.5z" stroke="none" fill="#E28C9A" fill-rule="nonzero" />
	</g>
	<g>
        <path d="M21.5 11.5C 22.8333 11.5 24.1667 11.5 25.5 11.5C 26.4015 14.8717 26.4015 18.205 25.5 21.5C 24.4968 19.458 23.1634 19.1246 21.5 20.5C 20.4911 17.5274 20.4911 14.5274 21.5 11.5z" stroke="none" fill="#C1363E" fill-rule="nonzero" />
	</g>
	<g>
        <path d="M137.5 159.5C 138.239 159.369 138.906 159.536 139.5 160C 138.563 160.692 137.897 160.525 137.5 159.5z" stroke="none" fill="#FDFEFE" fill-rule="nonzero" fill-opacity="0.007843138" />
	</g>
	<g>
        <path d="M30.5 160.5C 30.1034 161.525 29.4368 161.692 28.5 161C 29.0944 160.536 29.7611 160.369 30.5 160.5z" stroke="none" fill="#FDFEFD" fill-rule="nonzero" fill-opacity="0.007843138" />
	</g>
	<g>
        <path d="M134.5 160.5C 135.239 160.369 135.906 160.536 136.5 161C 135.563 161.692 134.897 161.525 134.5 160.5z" stroke="none" fill="#FCFDFC" fill-rule="nonzero" fill-opacity="0.007843138" />
	</g>
	<g>
        <path d="M33.5 161.5C 33.1034 162.525 32.4368 162.692 31.5 162C 32.0944 161.536 32.7611 161.369 33.5 161.5z" stroke="none" fill="#FDFEFD" fill-rule="nonzero" fill-opacity="0.007843138" />
	</g>
	<g>
        <path d="M131.5 162.5C 131.5 162.167 131.5 161.833 131.5 161.5C 134.167 161.833 134.167 162.167 131.5 162.5z" stroke="none" fill="#FDFEFD" fill-rule="nonzero" fill-opacity="0.007843138" />
	</g>
	<g>
        <path d="M34.5 162.5C 35.8333 163.167 35.8333 163.167 34.5 162.5z" stroke="none" fill="#FDFEFD" fill-rule="nonzero" fill-opacity="0.007843138" />
	</g>
	<g>
        <path d="M131.5 162.5C 131.103 163.525 130.437 163.692 129.5 163C 130.094 162.536 130.761 162.369 131.5 162.5z" stroke="none" fill="#FEFDFD" fill-rule="nonzero" fill-opacity="0.007843138" />
	</g>
	<g>
        <path d="M38.5 163.5C 38.1034 164.525 37.4368 164.692 36.5 164C 37.0944 163.536 37.7611 163.369 38.5 163.5z" stroke="none" fill="#FDFEFD" fill-rule="nonzero" fill-opacity="0.007843138" />
	</g>
	<g>
        <path d="M126.5 163.5C 127.239 163.369 127.906 163.536 128.5 164C 127.563 164.692 126.897 164.525 126.5 163.5z" stroke="none" fill="#FDFEFD" fill-rule="nonzero" fill-opacity="0.007843138" />
	</g>
	<g>
        <path d="M41.5 164.5C 41.1034 165.525 40.4368 165.692 39.5 165C 40.0944 164.536 40.7611 164.369 41.5 164.5z" stroke="none" fill="#FDFEFD" fill-rule="nonzero" fill-opacity="0.007843138" />
	</g>
	<g>
        <path d="M123.5 165.5C 123.5 165.167 123.5 164.833 123.5 164.5C 126.167 164.833 126.167 165.167 123.5 165.5z" stroke="none" fill="#FDFEFD" fill-rule="nonzero" fill-opacity="0.007843138" />
	</g>
	<g>
        <path d="M44.5 165.5C 44.1034 166.525 43.4368 166.692 42.5 166C 43.0944 165.536 43.7611 165.369 44.5 165.5z" stroke="none" fill="#FCFCFC" fill-rule="nonzero" fill-opacity="0.007843138" />
	</g>
	<g>
        <path d="M123.5 165.5C 123.103 166.525 122.437 166.692 121.5 166C 122.094 165.536 122.761 165.369 123.5 165.5z" stroke="none" fill="#FDFEFD" fill-rule="nonzero" fill-opacity="0.007843138" />
	</g>
	<g>
        <path d="M46.5 166.5C 45.8333 167.167 45.8333 167.167 46.5 166.5z" stroke="none" fill="#FDFEFD" fill-rule="nonzero" fill-opacity="0.007843138" />
	</g>
	<g>
        <path d="M118.5 166.5C 119.239 166.369 119.906 166.536 120.5 167C 119.563 167.692 118.897 167.525 118.5 166.5z" stroke="none" fill="#FDFEFD" fill-rule="nonzero" fill-opacity="0.007843138" />
	</g>
	<g>
        <path d="M49.5 167.5C 49.1034 168.525 48.4368 168.692 47.5 168C 48.0944 167.536 48.7611 167.369 49.5 167.5z" stroke="none" fill="#FDFEFD" fill-rule="nonzero" fill-opacity="0.007843138" />
	</g>
	<g>
        <path d="M115.5 167.5C 116.239 167.369 116.906 167.536 117.5 168C 116.563 168.692 115.897 168.525 115.5 167.5z" stroke="none" fill="#FCFDFC" fill-rule="nonzero" fill-opacity="0.007843138" />
	</g>
	<g>
        <path d="M52.5 168.5C 52.1034 169.525 51.4368 169.692 50.5 169C 51.0944 168.536 51.7611 168.369 52.5 168.5z" stroke="none" fill="#FDFEFD" fill-rule="nonzero" fill-opacity="0.007843138" />
	</g>
	<g>
        <path d="M112.5 169.5C 112.5 169.167 112.5 168.833 112.5 168.5C 115.167 168.833 115.167 169.167 112.5 169.5z" stroke="none" fill="#FEFDFC" fill-rule="nonzero" fill-opacity="0.007843138" />
	</g>
	<g>
        <path d="M53.5 169.5C 54.8333 170.167 54.8333 170.167 53.5 169.5z" stroke="none" fill="#FDFEFD" fill-rule="nonzero" fill-opacity="0.007843138" />
	</g>
	<g>
        <path d="M112.5 169.5C 112.103 170.525 111.437 170.692 110.5 170C 111.094 169.536 111.761 169.369 112.5 169.5z" stroke="none" fill="#FDFDFD" fill-rule="nonzero" fill-opacity="0.007843138" />
	</g>
	<g>
        <path d="M57.5 170.5C 57.1034 171.525 56.4368 171.692 55.5 171C 56.0944 170.536 56.7611 170.369 57.5 170.5z" stroke="none" fill="#FDFEFD" fill-rule="nonzero" fill-opacity="0.007843138" />
	</g>
	<g>
        <path d="M107.5 170.5C 108.239 170.369 108.906 170.536 109.5 171C 108.563 171.692 107.897 171.525 107.5 170.5z" stroke="none" fill="#FDFDFD" fill-rule="nonzero" fill-opacity="0.007843138" />
	</g>
	<g>
        <path d="M60.5 171.5C 60.1034 172.525 59.4368 172.692 58.5 172C 59.0944 171.536 59.7611 171.369 60.5 171.5z" stroke="none" fill="#FDFEFD" fill-rule="nonzero" fill-opacity="0.007843138" />
	</g>
	<g>
        <path d="M104.5 172.5C 104.5 172.167 104.5 171.833 104.5 171.5C 107.167 171.833 107.167 172.167 104.5 172.5z" stroke="none" fill="#FCFDFE" fill-rule="nonzero" fill-opacity="0.007843138" />
	</g>
	<g>
        <path d="M63.5 172.5C 63.1034 173.525 62.4368 173.692 61.5 173C 62.0944 172.536 62.7611 172.369 63.5 172.5z" stroke="none" fill="#FDFEFD" fill-rule="nonzero" fill-opacity="0.007843138" />
	</g>
	<g>
        <path d="M104.5 172.5C 104.103 173.525 103.437 173.692 102.5 173C 103.094 172.536 103.761 172.369 104.5 172.5z" stroke="none" fill="#FEFEFE" fill-rule="nonzero" fill-opacity="0.007843138" />
	</g>
	<g>
        <path d="M64.5 173.5C 65.8333 174.167 65.8333 174.167 64.5 173.5z" stroke="none" fill="#FDFEFD" fill-rule="nonzero" fill-opacity="0.007843138" />
	</g>
	<g>
        <path d="M99.5 173.5C 100.239 173.369 100.906 173.536 101.5 174C 100.563 174.692 99.8966 174.525 99.5 173.5z" stroke="none" fill="#FDFEFD" fill-rule="nonzero" fill-opacity="0.007843138" />
	</g>
	<g>
        <path d="M68.5 174.5C 68.1034 175.525 67.4368 175.692 66.5 175C 67.0944 174.536 67.7611 174.369 68.5 174.5z" stroke="none" fill="#FDFEFD" fill-rule="nonzero" fill-opacity="0.007843138" />
	</g>
	<g>
        <path d="M96.5 174.5C 97.2389 174.369 97.9056 174.536 98.5 175C 97.5632 175.692 96.8966 175.525 96.5 174.5z" stroke="none" fill="#FDFEFD" fill-rule="nonzero" fill-opacity="0.007843138" />
	</g>
	<g>
        <path d="M71.5 175.5C 71.1034 176.525 70.4368 176.692 69.5 176C 70.0944 175.536 70.7611 175.369 71.5 175.5z" stroke="none" fill="#FDFEFD" fill-rule="nonzero" fill-opacity="0.007843138" />
	</g>
	<g>
        <path d="M93.5 176.5C 93.5 176.167 93.5 175.833 93.5 175.5C 96.1667 175.833 96.1667 176.167 93.5 176.5z" stroke="none" fill="#FDFEFD" fill-rule="nonzero" fill-opacity="0.007843138" />
	</g>
	<g>
        <path d="M72.5 176.5C 73.8333 177.167 73.8333 177.167 72.5 176.5z" stroke="none" fill="#FDFEFD" fill-rule="nonzero" fill-opacity="0.007843138" />
	</g>
	<g>
        <path d="M93.5 176.5C 93.1034 177.525 92.4368 177.692 91.5 177C 92.0944 176.536 92.7611 176.369 93.5 176.5z" stroke="none" fill="#FDFEFD" fill-rule="nonzero" fill-opacity="0.007843138" />
	</g>
	<g>
        <path d="M74.5 178.5C 74.8417 177.662 75.5084 177.328 76.5 177.5C 76.5 177.833 76.5 178.167 76.5 178.5C 75.8333 178.5 75.1667 178.5 74.5 178.5z" stroke="none" fill="#FDFEFD" fill-rule="nonzero" fill-opacity="0.007843138" />
	</g>
	<g>
        <path d="M88.5 178.5C 88.5 178.167 88.5 177.833 88.5 177.5C 89.4916 177.328 90.1583 177.662 90.5 178.5C 89.8333 178.5 89.1667 178.5 88.5 178.5z" stroke="none" fill="#FDFEFD" fill-rule="nonzero" fill-opacity="0.007843138" />
	</g>
</g>
</svg>