<?xml version="1.0" standalone="no"?>
<!DOCTYPE svg PUBLIC "-//W3C//DTD SVG 20010904//EN"
 "http://www.w3.org/TR/2001/REC-SVG-20010904/DTD/svg10.dtd">
<svg version="1.0" xmlns="http://www.w3.org/2000/svg"
 width="166.000000pt" height="179.000000pt" viewBox="0 0 166.000000 179.000000"
 preserveAspectRatio="xMidYMid meet">

<g transform="translate(0.000000,179.000000) scale(0.100000,-0.100000)"
fill="#000000" stroke="none">
<path d="M20 1093 c0 -641 1 -680 19 -719 10 -23 34 -53 52 -67 19 -13 193
-83 387 -154 l352 -130 353 130 c193 71 367 141 386 154 18 14 42 44 52 67 18
39 19 78 19 719 l0 677 -810 0 -810 0 0 -677z m1580 -5 c0 -386 -4 -647 -10
-669 -19 -69 -45 -83 -414 -219 l-346 -128 -346 128 c-369 136 -395 150 -414
219 -6 22 -10 283 -10 669 l0 632 770 0 770 0 0 -632z"/>
<path d="M120 1619 c0 -27 4 -48 9 -45 5 3 7 16 4 29 -4 21 -4 22 11 3 9 -11
16 -14 16 -8 0 7 4 12 10 12 5 0 7 -6 4 -14 -3 -8 -1 -17 5 -21 7 -4 11 11 11
44 0 53 -13 68 -26 29 l-7 -23 -10 23 c-16 36 -27 25 -27 -29z"/>
<path d="M216 1639 c-3 -17 -6 -41 -6 -53 1 -19 2 -20 14 -4 12 16 14 16 30 0
17 -16 18 -15 11 28 -9 53 -12 60 -29 60 -8 0 -16 -14 -20 -31z m34 -20 c0 -5
-4 -9 -10 -9 -5 0 -10 7 -10 16 0 8 5 12 10 9 6 -3 10 -10 10 -16z"/>
<path d="M300 1660 c0 -5 5 -10 10 -10 6 0 10 -13 10 -30 0 -16 -4 -30 -10
-30 -5 0 -10 5 -10 10 0 6 -4 10 -10 10 -5 0 -10 -7 -10 -15 0 -9 9 -15 25
-15 23 0 25 4 25 45 0 33 -4 45 -15 45 -8 0 -15 -4 -15 -10z"/>
<path d="M350 1625 c0 -43 1 -45 30 -45 29 0 30 2 30 45 0 43 -1 45 -30 45
-29 0 -30 -2 -30 -45z m40 -5 c0 -16 -4 -30 -10 -30 -5 0 -10 14 -10 30 0 17
5 30 10 30 6 0 10 -13 10 -30z"/>
<path d="M420 1626 c0 -25 5 -48 10 -51 6 -3 10 1 10 9 0 21 10 20 26 -1 12
-16 13 -11 14 35 0 51 0 52 -30 52 -29 0 -30 -2 -30 -44z m40 9 c0 -8 -4 -15
-10 -15 -5 0 -10 7 -10 15 0 8 5 15 10 15 6 0 10 -7 10 -15z"/>
<path d="M540 1625 c0 -43 1 -45 28 -44 16 1 20 3 10 6 -13 3 -18 15 -18 44 0
21 -4 39 -10 39 -5 0 -10 -20 -10 -45z"/>
<path d="M600 1625 c0 -43 1 -45 28 -44 16 1 20 3 10 6 -21 5 -23 19 -5 27 10
5 10 7 0 12 -18 8 -16 24 2 24 8 0 15 5 15 10 0 6 -11 10 -25 10 -23 0 -25 -4
-25 -45z"/>
<path d="M675 1624 c-7 -47 -1 -70 11 -40 6 16 8 16 26 -1 20 -18 20 -17 13
27 -9 53 -12 60 -29 60 -9 0 -16 -18 -21 -46z m35 -5 c0 -5 -4 -9 -10 -9 -5 0
-10 7 -10 16 0 8 5 12 10 9 6 -3 10 -10 10 -16z"/>
<path d="M747 1663 c-4 -3 -7 -24 -7 -45 0 -36 2 -38 30 -38 25 0 30 4 30 25
0 16 -6 25 -16 25 -11 0 -14 -6 -9 -20 4 -11 2 -20 -4 -20 -6 0 -11 14 -11 31
0 26 3 29 20 24 14 -5 20 -2 20 9 0 16 -40 23 -53 9z"/>
<path d="M820 1626 c0 -42 2 -46 25 -46 23 0 25 4 25 45 0 25 -4 45 -10 45 -5
0 -10 -18 -10 -41 0 -26 -4 -38 -11 -33 -6 3 -9 20 -7 36 3 16 1 31 -4 34 -4
3 -8 -15 -8 -40z"/>
<path d="M890 1621 c0 -47 1 -48 28 -43 19 4 22 7 10 10 -21 4 -23 13 -6 30 9
9 9 12 0 12 -7 0 -12 5 -12 10 0 6 7 10 15 10 8 0 15 5 15 10 0 6 -11 10 -25
10 -23 0 -25 -3 -25 -49z"/>
<path d="M990 1625 c0 -43 1 -45 30 -45 29 0 30 2 30 45 0 43 -1 45 -30 45
-29 0 -30 -2 -30 -45z m40 15 c0 -5 -4 -10 -10 -10 -5 0 -10 5 -10 10 0 6 5
10 10 10 6 0 10 -4 10 -10z m0 -40 c0 -5 -4 -10 -10 -10 -5 0 -10 5 -10 10 0
6 5 10 10 10 6 0 10 -4 10 -10z"/>
<path d="M1072 1628 c-10 -50 -5 -66 12 -42 9 12 15 14 20 6 11 -18 25 -14 21
6 -13 61 -17 72 -30 72 -8 0 -17 -17 -23 -42z m25 -10 c-3 -8 -6 -5 -6 6 -1
11 2 17 5 13 3 -3 4 -12 1 -19z"/>
<path d="M1140 1646 c0 -16 7 -27 20 -31 11 -3 20 -11 20 -16 0 -6 -9 -7 -20
-4 -11 4 -20 2 -20 -4 0 -6 11 -11 24 -11 31 0 44 40 15 47 -21 6 -27 26 -6
21 7 -2 14 2 15 7 1 6 -9 11 -23 13 -21 3 -25 -1 -25 -22z"/>
<path d="M1210 1625 c0 -43 1 -45 28 -44 16 1 20 3 10 6 -21 5 -23 19 -5 27
10 5 10 7 0 12 -18 8 -16 24 2 24 8 0 15 5 15 10 0 6 -11 10 -25 10 -23 0 -25
-4 -25 -45z"/>
<path d="M1280 1622 c0 -47 1 -49 25 -44 18 3 25 11 26 28 1 13 2 32 3 42 1
12 -8 18 -26 20 -27 3 -28 2 -28 -46z m40 18 c0 -5 -4 -10 -9 -10 -6 0 -13 5
-16 10 -3 6 1 10 9 10 9 0 16 -4 16 -10z m0 -34 c0 -11 -19 -15 -25 -6 -3 5 1
10 9 10 9 0 16 -2 16 -4z"/>
<path d="M1360 1658 c0 -7 -3 -31 -7 -53 -6 -37 -5 -39 10 -26 14 11 20 11 34
0 15 -13 16 -11 10 26 -4 22 -7 46 -7 53 0 6 -9 12 -20 12 -11 0 -20 -6 -20
-12z m30 -33 c0 -8 -4 -15 -10 -15 -5 0 -10 7 -10 15 0 8 5 15 10 15 6 0 10
-7 10 -15z"/>
<path d="M1420 1625 c0 -44 0 -45 33 -44 23 1 26 3 10 6 -19 4 -23 11 -23 44
0 21 -4 39 -10 39 -5 0 -10 -20 -10 -45z"/>
<path d="M1490 1625 c0 -43 1 -45 28 -44 16 1 20 3 10 6 -13 3 -18 15 -18 44
0 21 -4 39 -10 39 -5 0 -10 -20 -10 -45z"/>
<path d="M120 1378 l0 -148 30 0 c28 0 30 2 30 40 l0 39 58 3 57 3 3 97 c3
116 -1 120 -108 117 l-70 -2 0 -149z m120 37 c0 -54 0 -55 -30 -55 -30 0 -30
1 -30 55 0 54 0 55 30 55 30 0 30 -1 30 -55z"/>
<path d="M335 1522 c-3 -3 -5 -70 -5 -149 l0 -143 84 0 c67 0 85 3 90 16 14
38 7 44 -49 44 l-54 0 -3 117 -3 117 -27 1 c-15 1 -30 0 -33 -3z"/>
<path d="M590 1526 c0 -1 -13 -64 -30 -139 -16 -76 -30 -142 -30 -147 0 -6 14
-10 30 -10 26 0 31 5 37 30 5 26 10 30 40 30 29 0 34 -4 40 -30 5 -26 10 -30
37 -30 l32 0 -30 148 -31 147 -47 2 c-27 1 -48 0 -48 -1z m64 -133 c6 -40 5
-43 -17 -43 -23 0 -23 1 -14 56 11 59 20 55 31 -13z"/>
<path d="M720 1526 c0 -3 18 -51 40 -106 26 -65 40 -116 40 -145 0 -43 1 -45
30 -45 29 0 30 1 30 50 0 34 11 78 35 137 19 48 35 92 35 98 0 6 -13 11 -30
11 -27 0 -31 -4 -46 -50 -24 -74 -25 -75 -48 -11 -19 54 -24 59 -53 62 -18 2
-33 2 -33 -1z"/>
<path d="M960 1379 l0 -149 80 0 80 0 0 30 c0 29 -1 30 -51 30 -49 0 -50 1
-47 27 2 22 9 29 33 33 24 4 31 11 33 33 3 25 1 27 -33 27 -34 0 -36 2 -33 28
3 25 7 27 51 30 45 3 47 4 47 33 l0 30 -80 -2 -80 -2 0 -148z"/>
<path d="M1150 1380 l0 -150 36 0 36 0 -4 40 c-3 36 -1 40 16 38 14 -2 23 -14
29 -40 8 -34 12 -38 42 -38 l33 0 -10 41 c-8 29 -8 43 1 52 13 13 15 166 1
187 -7 11 -31 16 -95 17 l-85 2 0 -149z m120 39 c0 -49 -1 -50 -27 -47 -24 3
-26 7 -25 46 0 23 1 44 1 47 1 3 12 5 26 5 23 0 25 -3 25 -51z"/>
<path d="M1378 1508 c-20 -20 -24 -78 -8 -108 6 -11 33 -29 60 -41 40 -17 50
-26 50 -45 0 -19 -5 -24 -25 -24 -16 0 -25 6 -25 15 0 16 -12 18 -47 9 -17 -5
-22 -12 -19 -34 5 -45 13 -50 85 -50 84 0 93 8 89 87 l-3 58 -52 25 c-41 19
-53 30 -53 48 0 17 6 22 25 22 18 0 25 -5 25 -18 0 -15 6 -18 30 -14 26 4 30
8 30 38 0 42 -23 56 -92 53 -34 -2 -58 -9 -70 -21z"/>
<path d="M120 805 l0 -375 27 -30 c20 -22 61 -43 146 -74 64 -24 119 -41 121
-37 2 3 4 22 4 41 0 76 -2 73 45 68 29 -4 59 2 97 17 30 12 73 26 95 30 22 4
43 11 46 16 8 14 -11 109 -28 143 -12 21 -14 46 -10 97 5 57 2 78 -15 116 -13
29 -22 77 -26 128 -4 73 -2 85 15 102 11 11 27 23 34 25 12 4 12 7 0 21 -9 11
-12 30 -8 52 l6 35 -275 0 -274 0 0 -375z"/>
<path d="M790 1170 c0 -5 9 -19 20 -30 24 -24 25 -30 6 -30 -8 0 -13 -10 -12
-25 2 -34 62 -55 177 -61 51 -3 98 -9 104 -14 7 -6 69 -6 166 0 214 13 229 13
236 -6 13 -34 -10 -37 -202 -25 -161 11 -188 11 -198 -2 -16 -19 -110 -79
-166 -106 -31 -15 -48 -18 -61 -11 -26 14 -29 -5 -14 -65 8 -27 14 -58 14 -68
0 -10 11 -33 25 -51 28 -36 95 -179 95 -202 0 -17 42 -92 78 -141 23 -31 60
-49 127 -59 47 -7 292 87 328 126 l27 30 0 375 0 375 -375 0 c-243 0 -375 -4
-375 -10z"/>
<path d="M880 981 l-55 -6 42 -23 c42 -22 44 -22 94 -6 79 26 30 48 -81 35z"/>
<path d="M815 437 l-30 -62 -130 -12 c-71 -6 -133 -12 -137 -12 -10 -1 -62
-80 -57 -85 2 -2 86 -33 186 -70 l182 -67 138 50 c108 38 132 50 108 53 -20 2
-31 9 -33 23 -2 11 -34 52 -71 90 -37 39 -79 89 -94 113 -15 23 -28 42 -30 42
-1 0 -15 -28 -32 -63z"/>
</g>
</svg>
