<?xml version="1.0" encoding="UTF-8"?>
<!DOCTYPE svg PUBLIC "-//W3C//DTD SVG 1.1//EN" "http://www.w3.org/Graphics/SVG/1.1/DTD/svg11.dtd">
<svg xmlns="http://www.w3.org/2000/svg" version="1.1" width="416px" height="203px" style="shape-rendering:geometricPrecision; text-rendering:geometricPrecision; image-rendering:optimizeQuality; fill-rule:evenodd; clip-rule:evenodd" xmlns:xlink="http://www.w3.org/1999/xlink">
<g><path style="opacity:1" fill="#fdfefe" d="M -0.5,-0.5 C 138.167,-0.5 276.833,-0.5 415.5,-0.5C 415.5,67.1667 415.5,134.833 415.5,202.5C 276.833,202.5 138.167,202.5 -0.5,202.5C -0.5,134.833 -0.5,67.1667 -0.5,-0.5 Z"/></g>
<g><path style="opacity:1" fill="#fbf7dd" d="M 58.5,63.5 C 62.6748,60.779 67.3414,59.4456 72.5,59.5C 72.5,58.5 72.5,57.5 72.5,56.5C 69.8127,56.3359 67.146,56.5026 64.5,57C 61.8107,58.9242 58.8107,60.0909 55.5,60.5C 58.1348,58.8368 60.8015,57.1701 63.5,55.5C 66.7844,54.343 70.1177,54.1764 73.5,55C 74.0244,57.9297 75.3578,60.4297 77.5,62.5C 71.2284,62.1859 64.895,62.5192 58.5,63.5 Z"/></g>
<g><path style="opacity:1" fill="#6fa2b6" d="M 81.5,56.5 C 106.07,59.4041 120.07,73.0708 123.5,97.5C 122.5,97.5 121.5,97.5 120.5,97.5C 116.698,75.3642 103.698,62.6976 81.5,59.5C 81.5,58.5 81.5,57.5 81.5,56.5 Z"/></g>
<g><path style="opacity:1" fill="#d6be5c" d="M 58.5,63.5 C 44.1152,70.2518 36.1152,81.5852 34.5,97.5C 33.1667,97.5 31.8333,97.5 30.5,97.5C 32.8848,81.1205 41.2182,68.7872 55.5,60.5C 58.8107,60.0909 61.8107,58.9242 64.5,57C 67.146,56.5026 69.8127,56.3359 72.5,56.5C 72.5,57.5 72.5,58.5 72.5,59.5C 67.3414,59.4456 62.6748,60.779 58.5,63.5 Z"/></g>
<g><path style="opacity:1" fill="#87848a" d="M 152.5,82.5 C 148.298,82.1832 144.298,82.5166 140.5,83.5C 139.624,83.6309 138.957,83.2975 138.5,82.5C 143.318,81.1876 147.985,81.1876 152.5,82.5 Z"/></g>
<g><path style="opacity:1" fill="#898a8c" d="M 183.5,82.5 C 188.015,81.1876 192.682,81.1876 197.5,82.5C 197.376,83.1067 197.043,83.44 196.5,83.5C 192.366,82.5151 188.032,82.1818 183.5,82.5 Z"/></g>
<g><path style="opacity:1" fill="#151515" d="M 98.5,117.5 C 95.1667,118.833 91.8333,118.833 88.5,117.5C 89.1174,117.389 89.6174,117.056 90,116.5C 90.6667,107.167 90.6667,97.8333 90,88.5C 85.3169,98.5307 80.6503,108.531 76,118.5C 71.2131,109.306 66.7131,99.973 62.5,90.5C 62.44,89.9569 62.1067,89.6236 61.5,89.5C 60.1796,97.6572 60.1796,105.657 61.5,113.5C 61.0882,115.973 62.0882,117.306 64.5,117.5C 61.5,118.833 58.5,118.833 55.5,117.5C 56.4959,117.586 57.3292,117.252 58,116.5C 58.8324,105.818 58.6657,95.1511 57.5,84.5C 56.2054,83.9017 54.8721,83.4017 53.5,83C 57.423,82.2073 61.2564,82.374 65,83.5C 68.9102,92.3194 73.0768,100.986 77.5,109.5C 82.3248,100.852 86.3248,91.8517 89.5,82.5C 93.5138,82.3345 97.5138,82.5012 101.5,83C 100.128,83.4017 98.7946,83.9017 97.5,84.5C 96.3343,95.1511 96.1676,105.818 97,116.5C 97.3826,117.056 97.8826,117.389 98.5,117.5 Z"/></g>
<g><path style="opacity:1" fill="#151619" d="M 240.5,83.5 C 240.56,82.9569 240.893,82.6236 241.5,82.5C 243.657,84.4121 245.991,86.0787 248.5,87.5C 256.848,80.6833 257.515,81.5166 250.5,90C 249.667,90.1667 248.833,90.3333 248,90.5C 245.012,88.6783 242.512,86.345 240.5,83.5 Z"/></g>
<g><path style="opacity:1" fill="#4e4d4d" d="M 62.5,90.5 C 61.508,97.9818 61.1746,105.648 61.5,113.5C 60.1796,105.657 60.1796,97.6572 61.5,89.5C 62.1067,89.6236 62.44,89.9569 62.5,90.5 Z"/></g>
<g><path style="opacity:1" fill="#050610" d="M 145.5,85.5 C 146.167,87.1667 146.833,88.8333 147.5,90.5C 147.173,100.348 147.506,110.014 148.5,119.5C 148.215,123.717 150.215,125.883 154.5,126C 149.167,126.667 143.833,126.667 138.5,126C 141.767,126.063 143.934,124.563 145,121.5C 145.5,109.505 145.667,97.5046 145.5,85.5 Z"/></g>
<g><path style="opacity:1" fill="#151d2a" d="M 348.5,125.5 C 344.833,126.833 341.167,126.833 337.5,125.5C 338.496,125.586 339.329,125.252 340,124.5C 340.667,117.167 340.667,109.833 340,102.5C 336.12,98.5771 332.12,98.5771 328,102.5C 327.333,109.833 327.333,117.167 328,124.5C 328.383,125.056 328.883,125.389 329.5,125.5C 325.833,126.833 322.167,126.833 318.5,125.5C 319.496,125.586 320.329,125.252 321,124.5C 321.667,117.167 321.667,109.833 321,102.5C 320.242,100.09 318.575,99.0904 316,99.5C 313.272,99.5572 310.939,100.557 309,102.5C 308.333,109.833 308.333,117.167 309,124.5C 309.383,125.056 309.883,125.389 310.5,125.5C 307.167,126.833 303.833,126.833 300.5,125.5C 301.117,125.389 301.617,125.056 302,124.5C 302.5,116.507 302.666,108.507 302.5,100.5C 300.801,100.66 299.134,100.494 297.5,100C 300.969,98.2683 304.636,97.1016 308.5,96.5C 308.343,97.8734 308.51,99.2068 309,100.5C 313.173,96.8086 318.007,95.6419 323.5,97C 324.787,98.4095 325.954,99.9095 327,101.5C 331.598,96.355 337.098,95.1883 343.5,98C 344.126,98.7504 344.626,99.5838 345,100.5C 345.333,108.167 345.667,115.833 346,123.5C 346.417,124.756 347.25,125.423 348.5,125.5 Z"/></g>
<g><path style="opacity:1" fill="#6e7076" d="M 147.5,90.5 C 148.492,90.3284 149.158,90.6618 149.5,91.5C 148.506,100.652 148.173,109.985 148.5,119.5C 147.506,110.014 147.173,100.348 147.5,90.5 Z"/></g>
<g><path style="opacity:1" fill="#131a26" d="M 361.5,96.5 C 378.117,94.0322 385.284,101.032 383,117.5C 378.81,126.177 371.976,129.343 362.5,127C 353.121,120.462 350.954,111.962 356,101.5C 357.812,99.6997 359.645,98.0331 361.5,96.5 Z"/></g>
<g><path style="opacity:1" fill="#f6f7f7" d="M 364.5,97.5 C 371.419,97.2406 375.585,100.574 377,107.5C 378.745,114.564 377.245,120.731 372.5,126C 365.871,126.401 361.705,123.234 360,116.5C 359.333,112.167 359.333,107.833 360,103.5C 360.804,100.854 362.304,98.8541 364.5,97.5 Z"/></g>
<g><path style="opacity:1" fill="#12141d" d="M 119.5,105.5 C 120.978,105.238 122.311,105.571 123.5,106.5C 119.007,129.492 105.174,142.826 82,146.5C 81.5172,145.552 81.3505,144.552 81.5,143.5C 100.176,140.659 112.676,130.325 119,112.5C 119.497,110.19 119.663,107.857 119.5,105.5 Z"/></g>
<g><path style="opacity:1" fill="#131a25" d="M 245.5,95.5 C 249.135,96.1143 252.802,96.4476 256.5,96.5C 256.665,99.5184 256.498,102.518 256,105.5C 254.751,98.9037 250.917,96.4037 244.5,98C 241.833,100.667 241.833,103.333 244.5,106C 248.75,108.374 252.916,110.874 257,113.5C 260.296,120.17 258.463,124.67 251.5,127C 247.152,127.415 242.819,127.249 238.5,126.5C 238.335,123.15 238.502,119.817 239,116.5C 239.704,122.283 242.871,125.616 248.5,126.5C 253.449,125.298 254.782,122.298 252.5,117.5C 247.555,114.776 243.055,111.443 239,107.5C 237.541,101.474 239.708,97.4741 245.5,95.5 Z"/></g>
<g><path style="opacity:1" fill="#121926" d="M 272.5,96.5 C 287.919,94.4219 295.086,101.089 294,116.5C 289.643,126.925 282.143,130.092 271.5,126C 260.58,115.727 260.913,105.894 272.5,96.5 Z"/></g>
<g><path style="opacity:1" fill="#f3f4f4" d="M 275.5,97.5 C 282.515,97.6693 286.682,101.336 288,108.5C 288.977,113.734 288.31,118.734 286,123.5C 282.888,126.723 279.388,127.223 275.5,125C 269.948,118.296 268.448,110.796 271,102.5C 272.025,100.313 273.525,98.6464 275.5,97.5 Z"/></g>
<g><path style="opacity:1" fill="#7e7e7e" d="M 55.5,117.5 C 58.5,118.833 61.5,118.833 64.5,117.5C 65.3764,117.369 66.0431,117.702 66.5,118.5C 62.1667,119.833 57.8333,119.833 53.5,118.5C 53.9569,117.702 54.6236,117.369 55.5,117.5 Z"/></g>
<g><path style="opacity:1" fill="#7f7f7f" d="M 88.5,117.5 C 91.8333,118.833 95.1667,118.833 98.5,117.5C 99.675,117.281 100.675,117.614 101.5,118.5C 96.1667,119.833 90.8333,119.833 85.5,118.5C 86.325,117.614 87.325,117.281 88.5,117.5 Z"/></g>
<g><path style="opacity:1" fill="#111824" d="M 210.5,96.5 C 227.331,94.8242 234.164,102.158 231,118.5C 226.936,126.61 220.436,129.443 211.5,127C 201.764,121.122 199.264,112.956 204,102.5C 206.063,100.266 208.229,98.2659 210.5,96.5 Z"/></g>
<g><path style="opacity:1" fill="#f2f4f5" d="M 212.5,97.5 C 220.082,97.239 224.582,100.906 226,108.5C 226.977,113.734 226.31,118.734 224,123.5C 216.533,128.279 211.533,126.279 209,117.5C 206.14,110.018 207.307,103.352 212.5,97.5 Z"/></g>
<g><path style="opacity:1" fill="#0d1521" d="M 140.5,83.5 C 144.298,82.5166 148.298,82.1832 152.5,82.5C 157.653,93.4738 162.819,104.474 168,115.5C 173.708,104.75 178.875,93.7503 183.5,82.5C 188.032,82.1818 192.366,82.5151 196.5,83.5C 194.61,83.2965 193.11,83.9632 192,85.5C 191.333,98.1667 191.333,110.833 192,123.5C 193.444,125.155 195.278,125.822 197.5,125.5C 191.355,126.49 185.022,126.823 178.5,126.5C 180.042,125.837 181.709,125.17 183.5,124.5C 184.127,123.583 184.461,122.583 184.5,121.5C 185.494,111.013 185.828,100.346 185.5,89.5C 186.829,100.902 186.829,112.402 185.5,124C 186.793,124.49 188.127,124.657 189.5,124.5C 189.312,115.147 189.646,105.814 190.5,96.5C 190.23,93.6383 189.396,90.9716 188,88.5C 187.023,87.2264 186.189,87.2264 185.5,88.5C 184.508,88.3284 183.842,88.6618 183.5,89.5C 178.114,101.94 172.447,114.273 166.5,126.5C 160.257,115.098 154.59,103.431 149.5,91.5C 149.158,90.6618 148.492,90.3284 147.5,90.5C 146.833,88.8333 146.167,87.1667 145.5,85.5C 144.18,84.0582 142.514,83.3915 140.5,83.5 Z"/></g>
<g><path style="opacity:1" fill="#4b515e" d="M 183.5,89.5 C 183.842,88.6618 184.508,88.3284 185.5,88.5C 185.5,88.8333 185.5,89.1667 185.5,89.5C 185.828,100.346 185.494,111.013 184.5,121.5C 184.828,110.654 184.494,99.9869 183.5,89.5 Z"/></g>
<g><path style="opacity:1" fill="#0d1a33" d="M 185.5,89.5 C 185.5,89.1667 185.5,88.8333 185.5,88.5C 186.189,87.2264 187.023,87.2264 188,88.5C 189.396,90.9716 190.23,93.6383 190.5,96.5C 189.646,105.814 189.312,115.147 189.5,124.5C 188.127,124.657 186.793,124.49 185.5,124C 186.829,112.402 186.829,100.902 185.5,89.5 Z"/></g>
<g><path style="opacity:1" fill="#9ea0a2" d="M 197.5,125.5 C 198.043,125.56 198.376,125.893 198.5,126.5C 191.678,127.818 185.011,127.818 178.5,126.5C 185.022,126.823 191.355,126.49 197.5,125.5 Z"/></g>
<g><path style="opacity:1" fill="#98999b" d="M 300.5,125.5 C 303.833,126.833 307.167,126.833 310.5,125.5C 311.675,125.281 312.675,125.614 313.5,126.5C 308.167,127.833 302.833,127.833 297.5,126.5C 298.325,125.614 299.325,125.281 300.5,125.5 Z"/></g>
<g><path style="opacity:1" fill="#99999a" d="M 318.5,125.5 C 322.167,126.833 325.833,126.833 329.5,125.5C 330.675,125.281 331.675,125.614 332.5,126.5C 327.167,127.833 321.833,127.833 316.5,126.5C 316.957,125.702 317.624,125.369 318.5,125.5 Z"/></g>
<g><path style="opacity:1" fill="#949798" d="M 337.5,125.5 C 341.167,126.833 344.833,126.833 348.5,125.5C 349.376,125.369 350.043,125.702 350.5,126.5C 345.5,127.833 340.5,127.833 335.5,126.5C 335.957,125.702 336.624,125.369 337.5,125.5 Z"/></g>
<g><path style="opacity:1" fill="#4b7192" d="M 31.5,105.5 C 32.5,105.5 33.5,105.5 34.5,105.5C 38.1074,127.775 51.1074,140.108 73.5,142.5C 73.5,143.833 73.5,145.167 73.5,146.5C 56.2137,144.373 43.3804,135.707 35,120.5C 32.7301,115.754 31.5634,110.754 31.5,105.5 Z"/></g>
</svg>
