<?xml version="1.0" encoding="UTF-8"?>
<!DOCTYPE svg PUBLIC "-//W3C//DTD SVG 1.1//EN" "http://www.w3.org/Graphics/SVG/1.1/DTD/svg11.dtd">
<svg xmlns="http://www.w3.org/2000/svg" version="1.1" width="136px" height="88px" style="shape-rendering:geometricPrecision; text-rendering:geometricPrecision; image-rendering:optimizeQuality; fill-rule:evenodd; clip-rule:evenodd" xmlns:xlink="http://www.w3.org/1999/xlink">
<g><path style="opacity:0.806" fill="#ea1b22" d="M 70.5,-0.5 C 77.5,-0.5 84.5,-0.5 91.5,-0.5C 108.684,3.50858 120.184,13.8419 126,30.5C 128.356,42.246 126.022,52.9126 119,62.5C 110.194,74.1577 99.0277,82.491 85.5,87.5C 79.5,87.5 73.5,87.5 67.5,87.5C 42.4391,78.437 29.2725,60.437 28,33.5C 22.0585,40.1081 16.8918,47.2748 12.5,55C 9.48338,55.8218 7.81671,54.6551 7.5,51.5C 8.93494,45.9635 11.4349,40.9635 15,36.5C 20.3009,30.1979 25.9675,24.1979 32,18.5C 34.2959,12.5339 37.7959,7.36727 42.5,3C 43.448,2.51722 44.448,2.35055 45.5,2.5C 43.3743,6.09569 41.5409,9.76236 40,13.5C 49.3099,6.75852 59.4765,2.09185 70.5,-0.5 Z M 104.5,70.5 C 84.8459,79.9066 67.0125,77.24 51,62.5C 35.1121,40.2268 39.9454,24.0602 65.5,14C 84.7051,8.35818 99.2051,14.1915 109,31.5C 113.572,47.0271 108.738,58.6938 94.5,66.5C 96.9515,67.3142 99.2849,66.8142 101.5,65C 114.879,53.0026 117.046,39.1692 108,23.5C 95.518,9.58741 80.3513,5.75407 62.5,12C 39.4108,21.6085 33.5774,37.4418 45,59.5C 56.5282,74.1714 71.6949,80.5047 90.5,78.5C 81.8782,83.1991 72.8782,83.6991 63.5,80C 41.0131,69.5195 31.1798,52.0195 34,27.5C 47.3405,14.4984 63.3405,7.16504 82,5.5C 99.0252,5.89863 111.359,13.5653 119,28.5C 122.79,38.3127 121.79,47.646 116,56.5C 112.397,61.3814 108.564,66.0481 104.5,70.5 Z M 59.5,61.5 C 56.4482,59.5601 55.1149,56.7267 55.5,53C 55.1,49.3019 56.4333,46.4686 59.5,44.5C 59.5766,49.8876 59.5766,55.5543 59.5,61.5 Z"/></g>
<g><path style="opacity:0.564" fill="#080808" d="M 104.5,70.5 C 104.631,71.3764 104.298,72.0431 103.5,72.5C 99.1856,74.8281 94.8523,76.8281 90.5,78.5C 71.6949,80.5047 56.5282,74.1714 45,59.5C 33.5774,37.4418 39.4108,21.6085 62.5,12C 80.3513,5.75407 95.518,9.58741 108,23.5C 117.046,39.1692 114.879,53.0026 101.5,65C 99.2849,66.8142 96.9515,67.3142 94.5,66.5C 108.738,58.6938 113.572,47.0271 109,31.5C 99.2051,14.1915 84.7051,8.35818 65.5,14C 39.9454,24.0602 35.1121,40.2268 51,62.5C 67.0125,77.24 84.8459,79.9066 104.5,70.5 Z M 59.5,61.5 C 59.5766,55.5543 59.5766,49.8876 59.5,44.5C 56.4333,46.4686 55.1,49.3019 55.5,53C 55.1149,56.7267 56.4482,59.5601 59.5,61.5 Z"/></g>
<g><path style="opacity:0.674" fill="#000000" d="M 59.5,61.5 C 59.5,62.5 59.5,63.5 59.5,64.5C 56.3579,64.2007 54.1912,62.5341 53,59.5C 51.1276,54.8184 51.1276,50.1518 53,45.5C 58.2936,40.8244 59.2936,35.491 56,29.5C 55.3333,26.8333 55.3333,24.1667 56,21.5C 57.7889,19.771 59.9556,19.1043 62.5,19.5C 62.5,20.5 62.5,21.5 62.5,22.5C 60.4099,22.4501 59.0766,23.4501 58.5,25.5C 59.9416,28.0496 61.1083,30.7163 62,33.5C 62.406,29.7276 63.2393,26.0609 64.5,22.5C 65.086,22.7093 65.586,23.0426 66,23.5C 66.3333,27.5 66.6667,31.5 67,35.5C 68.4852,30.8924 69.6519,26.2258 70.5,21.5C 71.8221,21.33 72.9887,21.6634 74,22.5C 75.2865,19.8554 77.4532,18.8554 80.5,19.5C 79.8214,21.6682 78.8214,23.6682 77.5,25.5C 78.6636,28.495 79.8303,31.495 81,34.5C 82.2367,30.9399 82.7367,27.2733 82.5,23.5C 83.8333,23.5 85.1667,23.5 86.5,23.5C 86.3379,25.5273 86.5045,27.5273 87,29.5C 88.3747,27.0632 88.8747,24.3965 88.5,21.5C 89.8333,21.5 91.1667,21.5 92.5,21.5C 91.8333,27.8333 91.1667,34.1667 90.5,40.5C 89.5,40.5 88.5,40.5 87.5,40.5C 87.8134,37.7531 87.48,35.0865 86.5,32.5C 85.5258,34.7427 85.1924,37.076 85.5,39.5C 83.6096,39.7035 82.1096,39.0368 81,37.5C 80.3378,40.4166 78.5045,41.7499 75.5,41.5C 75.4772,39.4004 76.1439,37.5671 77.5,36C 76.1952,33.2237 75.0285,30.3904 74,27.5C 72.5401,31.5358 70.8734,35.5358 69,39.5C 64.9532,41.4694 62.9532,40.1361 63,35.5C 62.7674,37.7801 61.934,39.7801 60.5,41.5C 68.4556,42.4077 70.1222,46.0744 65.5,52.5C 66.4803,53.9814 67.647,55.3147 69,56.5C 69.4988,52.5138 69.6655,48.5138 69.5,44.5C 70.8333,44.5 72.1667,44.5 73.5,44.5C 72.0238,60.173 73.1904,60.173 77,44.5C 79.7013,43.5657 82.2013,42.2324 84.5,40.5C 85.6721,40.9186 86.6721,41.5853 87.5,42.5C 85.8173,43.8534 84.4839,45.5201 83.5,47.5C 85.2743,50.7148 86.7743,54.0482 88,57.5C 88.1452,53.0095 88.9785,48.6761 90.5,44.5C 91.086,44.7093 91.586,45.0426 92,45.5C 92.1922,47.5767 92.6922,49.5767 93.5,51.5C 94.6781,48.6092 95.3447,45.6092 95.5,42.5C 96.5,42.5 97.5,42.5 98.5,42.5C 98.0462,49.1593 97.7129,55.8259 97.5,62.5C 96.1779,62.67 95.0113,62.3366 94,61.5C 93.6667,59.1667 93.3333,56.8333 93,54.5C 91.6814,56.2495 91.1814,58.2495 91.5,60.5C 90.1779,60.67 89.0113,60.3366 88,59.5C 86.7367,62.4677 84.7367,63.4677 82,62.5C 82.2555,61.0852 82.7555,59.5852 83.5,58C 82.733,54.3658 81.5664,50.8658 80,47.5C 79.1878,52.2572 77.6878,56.7572 75.5,61C 70.397,62.3703 66.5636,60.537 64,55.5C 63.1048,57.8045 62.2715,60.1378 61.5,62.5C 60.8165,62.1373 60.1499,61.8039 59.5,61.5 Z M 59.5,61.5 C 59.5766,55.5543 59.5766,49.8876 59.5,44.5C 56.4333,46.4686 55.1,49.3019 55.5,53C 55.1149,56.7267 56.4482,59.5601 59.5,61.5 Z"/></g>
<g><path style="opacity:0.68" fill="#000000" d="M 93.5,22.5 C 94.8333,22.5 96.1667,22.5 97.5,22.5C 97.2401,28.172 96.9068,33.8387 96.5,39.5C 95.5,39.5 94.5,39.5 93.5,39.5C 93.5,33.8333 93.5,28.1667 93.5,22.5 Z"/></g>
</svg>
